<?xml version="1.0" encoding="utf-8"?>
<!-- Generator: Adobe Illustrator 17.1.0, SVG Export Plug-In . SVG Version: 6.00 Build 0)  -->
<!DOCTYPE svg PUBLIC "-//W3C//DTD SVG 1.1//EN" "http://www.w3.org/Graphics/SVG/1.1/DTD/svg11.dtd">
<svg version="1.1" id="Layer_1" xmlns="http://www.w3.org/2000/svg" xmlns:xlink="http://www.w3.org/1999/xlink" x="0px" y="0px"
	 width="99.2px" height="98px" viewBox="0 0 99.2 98" style="enable-background:new 0 0 99.2 98;" xml:space="preserve">
<style type="text/css">
	.st0{fill:#EF404D;}
	.st1{fill:#EF4550;}
	.st2{fill:#EF4751;}
	.st3{fill:#EF4752;}
	.st4{fill:#EF4651;}
	.st5{fill:#EF444F;}
	.st6{fill:#F0545C;}
	.st7{fill:#F0515A;}
	.st8{fill:#F04C56;}
	.st9{fill:#EF4953;}
	.st10{fill:#F04B55;}
	.st11{fill-rule:evenodd;clip-rule:evenodd;fill:#F04C56;}
	.st12{fill:#EF424E;}
	.st13{fill:#EF434F;}
	.st14{fill:#EF434E;}
	.st15{fill:#EF4852;}
	.st16{fill:#F04D56;}
	.st17{fill:#EF4853;}
	.st18{fill:#F04E57;}
	.st19{fill:#FFFFFF;}
	.st20{fill:#E9444B;}
</style>
<g>
	<path class="st0" d="M-736.8-472.3c-0.4,0-0.8-0.2-0.9-0.6c-0.2-0.5,0-1.1,0.5-1.3c0.1,0,8.5-3.6,8.1-9.3l-0.1-1.1
		c-0.4-5.7-0.7-9.4,4.1-10.1c1.3-0.2,2.2-0.2,2.9-0.3c1.3-0.1,1.3-0.1,1.5-0.7c0.8-2,1.6-2.5,3.4-2.3c0.2,0,0.5,0.1,1,0.6
		c0-0.1,0.1-0.2,0.1-0.3c0.3-0.5,0.7-0.9,1.3-1.1c1.9-0.6,2.9,0.8,3.4,1.5c0.1,0.2,0.3,0.4,0.4,0.6c0.2-0.3,0.3-1.1,0.5-1.6
		c0.4-1.7,1-4.1,3.1-4.5c2.1-0.4,3,0.6,3.9,1.7c0.6,0.7,1.4,1.6,2.8,2.5c3.8,2.4,7.1,3.8,7.7,3.9c0.5,0.1,0.9,0.5,0.9,1.1
		c-0.1,0.5-0.5,0.9-1.1,0.9c-1.3-0.1-5.1-2-8.6-4.2c-1.7-1.1-2.6-2.1-3.2-2.8c-0.9-1-1.1-1.2-2.1-1c-0.8,0.2-1.2,1.4-1.6,3
		c-0.3,1.5-0.7,2.9-1.9,3.1c-1.3,0.3-2-0.7-2.5-1.4c-0.6-0.8-0.8-0.9-1.2-0.8c0,0,0,0-0.1,0.1c-0.4,0.7-0.1,2.6,0.3,4.2
		c0.1,0.5,0.3,1,0.5,1.6l-1.9,0.6c-0.1-0.3-0.3-0.8-0.4-1.5c-0.6-2-1.3-3.7-1.7-4.2c-0.6-0.1-0.7,0-1.1,1.1
		c-0.7,1.8-1.6,1.8-3.2,1.9c-0.6,0-1.5,0.1-2.7,0.3c-2.8,0.4-2.9,1.6-2.4,7.9l0.1,1.1c0.5,7.1-8.9,11.2-9.3,11.3
		C-736.5-472.4-736.7-472.3-736.8-472.3z"/>
	<path class="st0" d="M-699.3-482.1c-0.4,0-0.8-0.2-0.9-0.6c-2.8-7.1,2.7-10.2,2.8-10.2c0.5-0.3,1.1-0.1,1.3,0.4
		c0.3,0.5,0.1,1.1-0.4,1.3c-0.2,0.1-4,2.4-1.9,7.8c0.2,0.5,0,1.1-0.6,1.3C-699-482.1-699.2-482.1-699.3-482.1z"/>
	<path class="st0" d="M-670.4-462.2c0,0-0.1,0-0.1,0c-0.5-0.1-0.9-0.6-0.8-1.1c0.9-6.8-2.8-11.5-2.8-11.6c-0.3-0.4-0.3-1.1,0.2-1.4
		c0.4-0.3,1.1-0.3,1.4,0.2c0.2,0.2,4.3,5.4,3.2,13.1C-669.5-462.6-670-462.2-670.4-462.2z"/>
	<path class="st0" d="M-691.5-460.5c-1.3,0-2.5-0.3-3.6-0.8c-4.2-2.2-5.1-7.6-5.1-7.8c-0.1-0.5,0.3-1,0.8-1.1c0.5-0.1,1,0.3,1.1,0.8
		c0,0,0.8,4.7,4.1,6.4c2.1,1.1,4.8,0.8,8.2-1c0.5-0.3,1.1-0.1,1.3,0.4c0.2,0.5,0.1,1.1-0.4,1.3
		C-687.5-461.1-689.6-460.5-691.5-460.5z"/>
	<path class="st0" d="M-691.7-453.3c-2.1,0-4-0.4-5.8-1.1c-6.4-2.7-8.6-9.4-9.3-11.6c0-0.2-0.1-0.3-0.1-0.4c-0.3-0.4-0.3-0.9,0-1.2
		c0.2-0.3,0.6-0.4,1-0.3c0.6,0.1,0.8,0.6,1,1.3c0.7,2,2.6,8.1,8.2,10.4c4.2,1.8,9.5,1.1,15.8-2c0.5-0.2,1.1,0,1.3,0.5
		c0.2,0.5,0,1.1-0.5,1.3C-684.3-454.4-688.3-453.3-691.7-453.3z"/>
	<path class="st0" d="M-684.3-467.3c-1.3,0-2.2-0.4-2.8-1.1c-1-1.2-0.7-2.8-0.5-3.6c-1.7,0.2-2.9-0.1-3.6-0.9c-1.4-1.7,0-4.6,0.2-5
		c1.7-3.8,6.2-14,6.6-15.3c0.1-0.4,0-0.8,0-0.9c-0.1,0.1-0.4,0.3-0.7,0.8c-1.9,2.8-4.9,3.3-5.1,3.3l-0.2,0l-0.2,0
		c-0.3-0.1-3-0.6-3.6-2.7c-0.4-1.5,0.4-3.1,2.3-5c4.7-4.4,13.3-7.7,15.3-8.4l8.3-18.2c0.2-0.5,0.8-0.7,1.3-0.5
		c0.5,0.2,0.7,0.8,0.5,1.3l-8.7,19l-0.4,0.1c-0.1,0-10,3.5-15,8.1c-1.3,1.2-1.9,2.3-1.8,3c0.2,0.7,1.3,1.1,1.9,1.3
		c0.5-0.1,2.4-0.6,3.5-2.4c1.3-2.1,2.7-1.8,3.2-1.5c1.1,0.5,1.5,1.9,1.1,3.3c-0.5,1.8-6.1,14.2-6.8,15.6c-0.4,0.9-0.8,2.4-0.4,2.9
		c0.1,0.1,0.6,0.5,2.3,0.1c0.4-0.5,1.3-1.9,2-3.5l4.2-10.3l1.8,0.8l-4.2,10.3c0,0,0,0,0,0.1l-2,4.9c-0.2,0.5-0.4,1.7,0,2.2
		c0.3,0.4,1.1,0.5,2.2,0.3c0.7-0.5,2.2-3.9,3.4-7.5l1.8-5.5c0.3-2.1,1.3-4.2,1.5-4.5l1.8,0.7l-1.3,4.2c-0.1,0.8-0.1,1.5,0.2,1.9
		c0.1,0.1,0.4,0.6,1.5,0.6c0.9,0,2.3-2.5,3-4.9c0.1-0.3,0.1-0.5,0.2-0.6l1.9,0.6c0,0.1-0.1,0.3-0.1,0.5c-0.2,1-0.4,2.6,0.1,3.3
		c0.1,0.1,0.3,0.5,1.3,0.4c1.8-0.1,3.3-5.6,3.7-9.3l0-0.3l0.2-0.2c0,0,3.6-4,2.5-7.4c-1.4-4.4,1.9-9.9,2.1-10.2
		c0.3-0.5,0.9-0.6,1.4-0.3c0.5,0.3,0.6,0.9,0.3,1.4c0,0-3,5-1.9,8.6c1.2,4-1.9,8-2.7,9.1c-0.3,2.3-1.6,10.4-5.5,10.7
		c-1.6,0.1-2.5-0.6-3-1.1c-0.1-0.2-0.2-0.3-0.3-0.5c-0.8,1.2-1.8,2.3-3.1,2.3c-1.5,0-2.4-0.5-2.9-1.1l-0.7,2.3
		c-1.2,3.8-3,8.4-4.7,8.8C-683.4-467.4-683.8-467.3-684.3-467.3z"/>
</g>
<g>
	<path class="st0" d="M-633.4-484.7c-2,0-3.4-0.8-4.1-2.3c-0.7-1.6-0.6-3.4,0.2-4.9c0.5-0.9,1.2-1.6,2-1.8c1.2-0.7,2.5-1.1,3.8-1.1
		c0.5,0,1,0.1,1.3,0.1c0.8-0.7,2.8-2.8,2.9-5.3c0.1-2.9-1-3.8-1.3-4c-0.1,0-0.3,0-0.5,0c-1.5-0.1-4.7-0.4-6.6-2.3
		c-0.8-0.6-1.8-1.8-2-3.4c-0.2-1.3,0.2-2.6,1-3.7c0.9-1.1,2.2-1.7,3.8-1.7c1.5,0,2.7,0.5,2.8,0.5l0.2,0.1c0.1,0.1,2.1,1.4,3.9,4.5
		c0.4,0.2,1.2,0.4,2.2,0.4c1.1,0,2.6-0.3,3.6-1.7c1.7-2.3,1.9-3.2,2-3.3l0,0c0,0,0.2-1.8-0.2-3c-0.1-0.4-0.3-0.7-0.4-1
		c-0.4-0.7-0.9-1.6-0.9-3.6v-0.2l0.2-0.3c0.3-0.8,1.4-3.3,5-3.4l0.2,0c1.6,0,3,0.7,3.8,1.8c0.6,0.8,0.8,1.9,0.7,2.6
		c-0.1,2.3-0.6,3.1-1,3.8c-0.2,0.4-0.4,0.8-0.6,1.7c-0.1,0.9-0.3,3.9,2.9,5.1c3.1,1.1,6.6,3.3,6.8,3.4l0.5,0.3v15.3l-12.9,7.2
		l-7.5-4.3c0,0-1.2-0.7-2.5-0.7c-1,0-1.9,0.4-2.6,1.2l-0.1,0.1l-3.8,3.5l-0.2,0.1C-631-485-632.1-484.7-633.4-484.7z M-631.4-492.7
		c-1,0-2,0.3-2.9,0.9l-0.2,0.1l-0.2,0c-0.1,0-0.5,0.3-0.8,0.9c-0.2,0.4-0.7,1.6-0.1,3c0.1,0.3,0.5,1.1,2.2,1.1
		c0.7,0,1.4-0.1,1.7-0.2l3.5-3.1c1.1-1.2,2.5-1.9,4.1-1.9c1.9,0,3.5,1,3.5,1l6.5,3.8l10.9-6.1v-13c-1.1-0.6-3.7-2.1-5.9-2.9
		c-3.1-1.1-4.7-3.9-4.2-7.3c0.2-1.2,0.5-1.8,0.8-2.3c0.3-0.6,0.6-1.1,0.7-3.1l0.1-0.3c0-0.1-0.1-0.6-0.5-1.1
		c-0.5-0.5-1.2-0.8-2.1-0.8l-0.1,0c-2.3,0.1-2.9,1.5-3.2,2.2c0,1.3,0.3,1.8,0.6,2.4c0.2,0.4,0.4,0.8,0.6,1.4
		c0.5,1.6,0.3,3.5,0.2,3.8c-0.1,0.7-0.9,2.2-2.3,4.3c-1.2,1.7-3,2.6-5.2,2.6c-1.3,0-2.6-0.3-3.4-0.9l-0.2-0.1l-0.1-0.2
		c-1.5-2.5-3-3.7-3.4-4c-0.3-0.1-1.1-0.3-1.9-0.3c-1,0-1.7,0.3-2.2,0.9c-0.5,0.7-0.7,1.4-0.6,2.1c0.1,0.9,0.8,1.8,1.3,2.1l0.1,0.1
		c1.4,1.4,4.1,1.6,5.5,1.7c0.6,0.1,0.9,0.1,1.1,0.2c0.6,0.3,2.7,1.7,2.5,6c-0.2,4.2-3.9,7-4.1,7.1l-0.4,0.3l-0.5-0.2l0,0
		C-630.2-492.5-630.7-492.7-631.4-492.7z"/>
	<path class="st0" d="M-610.6-501.4c-1.7,0-3-1.4-3-3s1.4-3,3-3s3,1.4,3,3S-608.9-501.4-610.6-501.4z M-610.6-506.4
		c-1.1,0-2,0.9-2,2s0.9,2,2,2s2-0.9,2-2S-609.5-506.4-610.6-506.4z"/>
	<circle class="st0" cx="-607.2" cy="-497.4" r="1.6"/>
	<circle class="st0" cx="-613.1" cy="-492.6" r="2.1"/>
	<circle class="st0" cx="-620.2" cy="-503.3" r="2.7"/>
	<circle class="st0" cx="-615.2" cy="-499" r="1.2"/>
	<circle class="st0" cx="-620.7" cy="-495.3" r="1.2"/>
	<g>
		<path class="st0" d="M-603-452.4c-0.3,0-0.6,0-0.9-0.1c-3.6-0.6-4.1-5-4.1-5.2l0-0.1l0-0.1c0-0.1,0.2-2.5,2-5.6
			c0-1.2-1.1-4.1-3.9-4.5c-1.2-0.2-2.2-0.2-2.9-0.2c-0.6,0-0.8,0-0.9,0.1l0,0c0,0-1.6,0.7-2.6,1.6c-0.3,0.3-0.5,0.5-0.7,0.9
			c-0.5,0.7-1,1.5-2.7,2.4l-0.2,0.1l-0.4,0c-0.2,0-0.5,0-0.8,0c-1.9,0-3.5-1-4.6-2.8c-1.2-2-0.7-3.6-0.3-4.4c0.5-0.9,1.3-1.7,2-1.9
			c1.7-0.8,2.6-1,3.5-1l0.5,0c0.4,0,0.8,0,1.5-0.3c0.9-0.3,3.6-1.6,3.1-5c-0.5-3.2-0.3-7.4-0.3-7.6l0-0.6l13.4-7.2l12.5,7.9
			l-0.2,8.7c0,0.2-0.2,3.6,2.9,4.3l0.1,0l4.9,1.7l0.2,0.2c1.4,1.4,3.2,4.3,1.4,6.6c-1.1,1.4-2.6,2.1-4.3,2.1c-1.1,0-2-0.3-2.6-0.9
			c-2.2-1.3-3-3.2-3.3-4.1c-0.6-0.2-1.9-0.6-3.3-0.6c-1,0-1.9,0.2-2.7,0.6c-2.6,1.2-2.9,2.7-2.9,3.1c0,0.1,0.1,0.3,0.2,0.5
			c0.6,1.4,1.9,4.3,1.2,6.9C-598.4-454.9-600.1-452.4-603-452.4z M-606.1-457.8c0.1,0.5,0.6,3,2.5,3.4c0.2,0,0.4,0.1,0.6,0.1
			c1.9,0,2.8-1.8,2.9-2.7l0-0.2c0.6-1.9-0.5-4.4-1.1-5.6c-0.2-0.6-0.4-0.8-0.4-1.1c0-0.7,0.2-3.2,4.1-5c1.1-0.5,2.3-0.8,3.6-0.8
			c2.5,0,4.5,0.9,4.6,1l0.5,0.2l0.1,0.5c0,0.1,0.3,2,2.6,3.3l0.2,0.1l0.1,0.2c0.1,0.1,0.5,0.3,1.1,0.3c0.5,0,1.8-0.1,2.8-1.4
			c1-1.3-0.6-3.3-1.1-3.9l-4.4-1.6c-3.7-0.9-4.5-4.5-4.4-6.3l0.2-7.5l-10.6-6.7l-11.4,6.2c0,1.2-0.1,4.3,0.3,6.6
			c0.5,3.3-1.2,6-4.4,7.2c-1,0.4-1.6,0.4-2.2,0.4h0l-0.5,0c-0.5,0-1.2,0.1-2.8,0.8l-0.3,0.1c-0.1,0-0.5,0.4-0.8,1
			c-0.3,0.7-0.1,1.5,0.3,2.3c0.7,1.2,1.6,1.8,2.9,1.8c0.2,0,0.4,0,0.6,0c1.2-0.6,1.5-1.1,1.8-1.7c0.2-0.4,0.5-0.7,0.9-1.2
			c1.2-1.1,3-1.9,3.2-2c0.7-0.3,2.4-0.3,4.9,0c4.3,0.6,5.8,5.1,5.6,6.8l0,0.2l-0.1,0.2C-605.7-460.2-606.1-458.2-606.1-457.8z"/>
		<path class="st0" d="M-608.5-476.5c-1.1,0-2.1-0.6-2.7-1.6c-0.8-1.5-0.2-3.3,1.2-4.1c0.4-0.2,0.9-0.4,1.4-0.4
			c1.1,0,2.1,0.6,2.7,1.6c0.8,1.5,0.2,3.3-1.2,4.1C-607.5-476.7-608-476.5-608.5-476.5z M-608.5-481.6c-0.3,0-0.7,0.1-1,0.2
			c-1,0.5-1.3,1.8-0.8,2.7c0.5,0.9,1.8,1.3,2.7,0.8c1-0.5,1.3-1.8,0.8-2.7C-607.1-481.1-607.8-481.6-608.5-481.6z"/>
		<circle class="st0" cx="-603.9" cy="-485.8" r="1.6"/>
		<circle class="st0" cx="-596.9" cy="-483" r="2.1"/>
		<circle class="st0" cx="-603" cy="-471.7" r="2.7"/>
		<circle class="st0" cx="-601.6" cy="-478.1" r="1.2"/>
		<circle class="st0" cx="-595.7" cy="-474.9" r="1.2"/>
	</g>
	<g>
		<path class="st0" d="M-571.5-483.1c-0.9,0-1.8-0.3-2.3-0.8c-1.9-1.3-2.3-2.1-2.7-2.8c-0.2-0.4-0.4-0.8-1.1-1.4
			c-1.8-1.5-4-1.7-5.9-0.2c-2.5,2-6.3,3.9-6.5,4l-0.5,0.2l-13-8l0.7-14.8l7.7-4.1c0.2-0.1,3.2-1.6,2.3-4.6l0-0.1l-0.9-5.1l0.1-0.2
			c0.1-0.2,1.4-5.1,5.1-4.5c1.7,0.2,3.2,1.2,4,2.7c0.5,0.9,0.7,1.9,0.5,2.6c-0.1,2.6-1.3,4.2-1.9,4.9c0.2,1.1,0.9,3.8,3,5.3
			c1.1,0.8,2.2,1.2,3.2,1.2c0.5,0,0.8-0.1,1-0.2c0.1-0.1,0.2-0.2,0.3-0.4c0.9-1.2,2.8-3.8,5.4-4.5c0.6-0.2,1.2-0.4,1.9-0.4
			c2.2,0,3.9,1.2,4.6,3.2c1.2,3.4-2.3,6.1-2.5,6.2l-0.2,0.1c-0.1,0-2.2,1-5.7,1l-0.1,0c-1,0.6-3,3-1.9,5.6c1.1,2.7,1.7,3.3,1.8,3.4
			l0,0c0,0,1.4,1.1,2.6,1.4c0.4,0.1,0.7,0.1,1.1,0.1c0.8,0,1.8,0.1,3.5,1.1l0.2,0.1l0.2,0.3c0.5,0.7,2.1,2.9,0.3,6
			C-568.9-483.5-570.6-483.1-571.5-483.1z M-580.8-491.4c1.5,0,3.1,0.6,4.4,1.7c1,0.8,1.3,1.4,1.6,1.9c0.3,0.6,0.6,1.1,2.2,2.2
			l0.2,0.2c0,0,0.4,0.2,0.9,0.2c0.6,0,1.5-0.3,2.2-1.5c1.1-2,0.3-3.2-0.2-3.9c-1.1-0.7-1.7-0.7-2.4-0.7c-0.4,0-0.9,0-1.5-0.2
			c-1.6-0.4-3.1-1.6-3.3-1.8c-0.6-0.4-1.4-1.9-2.4-4.2c-1.7-4,1.6-7.5,3.1-8.3l0.2-0.1l0.6,0c2.7,0,4.4-0.6,4.8-0.8
			c0.4-0.3,2.3-2,1.7-3.9c-0.6-1.7-2-1.9-2.8-1.9c-0.4,0-0.9,0.1-1.2,0.2l-0.2,0.1c-1.9,0.5-3.6,2.7-4.4,3.7
			c-0.4,0.5-0.5,0.7-0.8,0.9c-0.3,0.2-1,0.5-2.1,0.5c-1.3,0-2.8-0.5-4.3-1.6c-3.4-2.4-3.9-7-3.9-7.2l0-0.5l0.4-0.3
			c0.1,0,1.6-1.3,1.6-3.9l0-0.2l0.1-0.2c0-0.1,0-0.6-0.4-1.2c-0.3-0.4-1-1.4-2.5-1.6c-1.6-0.2-2.5,2.2-2.8,2.9l0.8,4.6
			c1.1,3.7-1.7,6.1-3.3,6.9l-6.6,3.6l-0.6,12.5l11,6.8c1.1-0.6,3.8-2,5.6-3.5C-583.6-490.9-582.3-491.4-580.8-491.4z"/>
		<path class="st0" d="M-588-490.7c-0.6,0-1.1-0.2-1.6-0.5c-0.7-0.4-1.2-1.1-1.3-1.9c-0.2-0.8-0.1-1.6,0.4-2.3
			c0.6-0.9,1.5-1.4,2.6-1.4c0.6,0,1.1,0.2,1.6,0.5c0.7,0.4,1.2,1.1,1.3,1.9c0.2,0.8,0.1,1.6-0.4,2.3C-586-491.2-587-490.7-588-490.7
			z M-588-495.7c-0.7,0-1.3,0.4-1.7,1c-0.3,0.5-0.4,1-0.2,1.5c0.1,0.5,0.4,1,0.9,1.3c0.9,0.6,2.2,0.3,2.8-0.7c0.3-0.5,0.4-1,0.2-1.5
			c-0.1-0.5-0.4-1-0.9-1.3C-587.3-495.6-587.7-495.7-588-495.7z"/>
		<circle class="st0" cx="-595.8" cy="-494.5" r="1.6"/>
		<circle class="st0" cx="-596.8" cy="-502.1" r="2.1"/>
		<circle class="st0" cx="-584" cy="-502.4" r="2.7"/>
		<circle class="st0" cx="-590.2" cy="-500.4" r="1.2"/>
		<circle class="st0" cx="-590.4" cy="-507.1" r="1.2"/>
	</g>
</g>
<path class="st1" d="M-16.9-470c-6,10.5-11.7,11.5-21.3,3.6c-6.6-5.4-10.5-12.3-10.4-21.4c2.5,0.2,4.1,1.5,5.8,2.8
	c1,0.7,2,1.6,3,0.5c1-1.1,0-2.1-0.9-2.9c-6.5-6.8-21.9-6.5-27.9,0.5c-0.8,0.9-1.6,1.9-0.6,3c0.9,1,1.8,0.2,2.6-0.5
	c1.7-1.4,3.3-2.7,5.5-3.3c3,11-10.6,25.8-20.5,26.4c-4.6,0.3-8.2-2.5-9.7-7.7c-1.7-5.7-1.5-11.5-0.4-17.3c2-10.4,6.6-19.5,13.7-27.3
	c4.6-5.1,9.1-4.7,13.1,1c5.7,8,3.3,14.2-6.3,16.4c-1.3,0.3-3,0.2-2.8,2c0.3,1.8,2,1.3,3.3,1.2c6.7-0.4,12.5-6.4,13-13.6
	c0.1-2.2,0.1-4.3,0.1-6.5c0-2.3,1.7-2,3.1-2c1.5,0,3.2-0.3,3.1,2c0,2-0.1,4,0,6c0.4,7.7,6.2,13.9,13.4,14.4c1.3,0.1,3,0.3,3.1-1.5
	c0.1-1.5-1.4-1.6-2.6-1.8c-0.5-0.1-1-0.1-1.5-0.2c-4.3-1.2-7.7-3.6-8.4-8.2c-0.6-4.1,4.8-11.6,8.6-12.5c3.6-0.9,6,1.3,8.2,3.7
	c5.8,6.6,9.8,14.2,12.3,22.6C-17.8-489.2-13.3-477.5-16.9-470z"/>
<path class="st2" d="M-143.6-526.7c5.3,1.8,4.9,5.7,6.1,9.1c0.6,1.7,2.1,2.3,2.1,4c0,1-1.2,0.5-1.1,1.3c-0.1,2.4-0.3,2.3-0.6,4.6
	c-0.1,1.9-0.1,2.9-3.1,3.1c-4,0.7-5.2,4.6-2.4,7.7c3.2,3.4,6.6,6.6,10,9.8c1.7,1.6,3.4,3.5,1.9,5.5c-2.9,4-3.3,7.6-3.9,11.9
	c-0.6,5-0.1,10.9-0.7,15.9c-0.3,2.5-1.4,3.3-3.9,3.2c-5.2-0.2-10.3-0.3-15.5,0c-3.8,0.2-3.8-1.6-2.7-4.1c0.9-2,1.8-3.9,3.1-5.7
	c4.7-6.4,4.7-10.8-0.2-18.1c-4.2,7.5-5.1,15.8-7.9,23.6c-0.3,0.8-0.4,1.6-0.6,2.4c-0.6,2.3-2.5,1.9-4.1,1.7
	c-2.4-0.3-1.6-2.2-1.3-3.5c0.8-4.3,1.4-8.6,2.6-12.7c1.8-6,2.9-11.9,3.1-18.1c0.1-3.9,1-7.6,3.4-10.8c2.2-3,6.1-6-2-8.4
	c0.2,0,0.3,1.3-0.2,2c-0.5,0.8-0.9,1.3-1.9,0.8c-0.7-0.4-0.6-1-0.3-1.7c2-4,2.9-7.8,0.7-12.3c-1.1-2.2,0.7-6,3-5.8
	c4.8,0.5,5.6-1.9,7.8-4.6C-149-528.8-144.7-527.5-143.6-526.7z M-153.2-507.3c0.5-3.8-2.4-5.6-3.2-8.2
	C-157.1-512.2-156.6-509.5-153.2-507.3z M-137.6-517.6c0.6,1.7,1.9,2.3,2.1,4"/>
<path class="st3" d="M-529.9-514.3c2.4-3.2,5.3-5.4,9.3-3.8c4,1.6,5.2,5.3,4.2,9.1c-0.8,2.8-0.8,4,2.3,4.8c3.2,0.9,4.5,3.7,4.6,7
	c0,4.2,0.1,8.3,0,12.5c-0.1,2.5,0.9,3.1,3.2,3.1c2.3,0,3.8-0.2,3.6-3.1c-0.2-4,0-8-0.1-12c0-3.7,1.5-6.7,5.1-7.7
	c2.9-0.8,2.4-2,1.9-4.2c-1-4.1-0.1-7.9,4.2-9.6c4.3-1.6,7.5,0.7,9.5,4.4c2.8,5.2,2.9,10.9,1.5,16.5c-1.6,6.3-6.3,9.9-10.9,8.4
	c-4.1-1.4-5.5-6.3-3.4-12.7c-3.3-0.2-4.6,1.5-4.7,4.4c-0.1,4.8,0,9.7-0.1,14.5c0,1.5,0.8,2.3,1.8,3.2c4.6,4.3,4.3,8.9-1.1,12.2
	c-3,1.8-4.4,4.2-4.8,7.5c-1.3,0-2.7,0-4,0c-1.6-3.6-4-6.4-7.4-8.8c-3.6-2.5-3.4-7.1-0.1-10.4c1.2-1.1,2.6-1.8,2.5-3.9
	c-0.2-4.8,0-9.6-0.1-14.4c-0.1-2.8-1.4-4.6-4.7-4.3c0.4,1,0.7,1.8,0.9,2.6c1.1,4.4-0.7,8.9-4.1,10.1c-3.5,1.2-7.6-0.9-9.8-5
	C-531.2-495.4-535.2-505.8-529.9-514.3z"/>
<path class="st4" d="M-319.4-482.5c1.7-1.9,3.4-3.1,4-4.6c1.9-5.5,4.5-8.9,11.4-8c3.9,0.5,4.8-3.9,5.3-7.4
	c8.2,11.7,3.2,35.6-17.8,42.3c-13.1,4.1-27.4-1.3-34.7-13.1c-7.3-11.9-5.7-26.7,3.9-36.9c9.5-10,24.8-12.3,36.7-5.5
	c3.7,2.1,7,9.9,5.9,13.9c-0.4,1.8-1.8,2.7-3.2,2.7c-5.3-0.1-7.2,3.3-8.5,7.6c-0.6,2-1.4,4.1-3.7,5c-1.5-1-0.9-5.8-4.7-2.7
	c3.4-2.2,4.1-6,4.8-9.7c0.9-4.5,0.1-8.3-4.4-10.6c-4.7-2.4-10.6-1.4-13.8,2.2c-3.3,3.9-4,8.8-0.9,12.2c2.7,3,1.9,5.5,0.9,8.7
	c-3.4,9.8,2,18.1,11.4,17.9c4.1-0.1,7.1-1.7,8.5-5.6c1.2-3.3,2.7-3.5,5-1.1c1.6,1.7,3.3,3,5.6,1.2c0.6-0.5,1.3-1.3,1.3-2
	c0.1-1-1-1.2-1.8-1.1c-2.2,0.2-2.8-1.6-3.6-2.9C-313.4-482.7-315.5-484.3-319.4-482.5z"/>
<g>
	<path class="st1" d="M-220.7-454.2c-10.4,2.7-20.5-4.8-22.9-6.1c-6.4-3.6-11.6-8-11.5-16.1c0-7.9,4.3-13.3,11.1-17
		c0.9-0.5,2.5-0.3,2.3-2.4c-3.9,2.1-5.7-2.9-9.7-3c1.7,1.9,2.9,3.3,4.4,4.8c-6.3,3.7-9.7,9.1-10.2,16.1c-2.2-0.8-4.9-9.2-3.8-13.8
		c1.1-4.6,4.7-5.1,4.7-5.1s-1.1-5.3,2.4-10.2c1.8,1.6,0.8,3.7,2.7,5c0.4-2.9-0.3-5.6,0.7-7.9c1.2-2.6,1.4-4.9-0.4-7.4
		c-0.5-0.8-2.1-2.4,0-3.3c2-0.9,2,1.2,2.6,2.2c0.4,0.7,0.7,1.7,1.7,1.4c1.1-0.4,1.3-1.3,1.1-2.4c-0.2-1.6-2.6-3.8-0.4-4.7
		c2.9-1.1,1.9,2.6,3.2,3.8c0.3,0.3,0.8,0.3,1.1,0.5c1.5-1.5-1.5-3.7,0.7-4.5c2.6-1,2,1.9,2.9,3c0.2,0.2,0.5,0.6,0.7,0.6
		c2.2,0,3.3,0.5,3.2,3.1c-0.1,2.9-2.2,2.4-3.8,2.9c-7.2,2.4-9.5,10.4-4.5,16.6c0-6.3,2.5-11.7,6.2-13.6c1.1-0.5,2.5-1.7,3.6-0.6
		c1.2,1.3-0.3,2.3-1,3.4c-3.4,5.6-1.3,11.8,4.6,14.6c5.8,2.7,10,7,11.5,13.6C-217.3-479.2-210.8-459.2-220.7-454.2z"/>
	<path class="st1" d="M-227.6-495.6c-3.4-1.2-5.6-2.2-5.4-5.3c0-0.3,0.7-0.9,0.9-0.8C-229.5-500.9-228.7-498.8-227.6-495.6z"/>
</g>
<g>
	<path class="st5" d="M-427.3-465.2c-9.5,0-9.6,0-8.5-9.5c0.7-5.9-0.4-11.5-2.6-17c-3.4-8.5-1.9-15.3,4.1-20.3
		c6.2-5.1,14.9-5.7,21.9-1.7c6.2,3.6,9.2,9.6,8.1,16.7c-0.5,3.1-0.3,5.9,2.4,8.1c1,0.8,2,2.3,0.4,3.3c-3.5,2.2-3,6.3-4.7,9.3
		c-1.7,3-2.6,3.9-5.7,3.2c-5.6-1.1-6.7-0.3-6.3,5.3c0.2,2.6-0.8,2.3-2.3,2.4C-422.6-465.1-424.9-465.2-427.3-465.2z"/>
	<path class="st6" d="M-391.1-480.6c0.3-1.9,0.7-3.7,3.4-3.1c2.7,0.6,4.6,2.3,4.7,5.1c0.2,2.9-0.1,5.9-0.5,8.8
		c-0.3,2.1-1.5,3.9-3.5,4.5c-2.5,0.8-4.9,1.7-7.4,2.8c-2.6,1.1-4.9-0.3-6.2-2.7c-0.6-1.1-1.6-2.5,0-3.5c1.7-1,1.8,0.8,2.4,1.6
		c1,1.5,2.5,2,3.8,0.9c1.5-1.3,3.1-1.8,4.9-1.6c0.3,0,0.7-0.1,1-0.3c4.1-2.8,0.4-7,1.9-10.5C-385.9-480.2-389-481.1-391.1-480.6
		L-391.1-480.6z"/>
	
		<rect x="-399.3" y="-479.5" transform="matrix(0.663 -0.7486 0.7486 0.663 221.1093 -458.1845)" class="st7" width="1.7" height="9.5"/>
	
		<rect x="-396.3" y="-482.8" transform="matrix(0.5633 -0.8262 0.8262 0.5633 222.3201 -535.5112)" class="st7" width="1.7" height="9.5"/>
</g>
<g>
	<path class="st3" d="M-687.6-395.5h-20v-11.8c0-5.5,4.5-10,10-10l0,0c5.5,0,10,4.5,10,10V-395.5z"/>
	<path class="st3" d="M-684.1-391.3c0,1.7-1.3,3-3,3H-708c-1.7,0-3-1.3-3-3l0,0c0-1.7,1.3-3,3-3h20.9
		C-685.5-394.3-684.1-392.9-684.1-391.3L-684.1-391.3z"/>
	<path class="st3" d="M-699.8-379l1.1,3.9c0,0,0,13.3,0,13.6c-0.7,1-2,5.3,1.1,5.3s2.2-4,1.4-5.3c0-0.6,0-13.8,0-13.8l0.7-3.8
		l6.9-6.9h-17.9L-699.8-379z"/>
	<path class="st3" d="M-695.1-358.9c0,0,0,0.6,0,0.9c0,1.1-1.1,2.1-2.3,2.1c-1.1,0-2.3-0.9-2.4-2.1l0-0.9c-5.9,0.2-9.9,1.3-9.9,2.6
		c0,1.4,5.4,2.6,12,2.6s12-1.2,12-2.6C-685.6-357.6-689.4-358.7-695.1-358.9z"/>
	<path class="st3" d="M-711.1-391.5c-1.9,0-3.5-0.5-4.5-1.5c-1.6-1.5-1.5-3.5-1.5-3.6c0-0.3,0.2-0.5,0.5-0.5c0.3,0,0.5,0.2,0.5,0.5
		c0,0,0,1.7,1.2,2.8c1,1,2.6,1.4,4.7,1.2c0.3,0,0.5,0.2,0.5,0.5s-0.2,0.5-0.5,0.5C-710.4-391.5-710.8-391.5-711.1-391.5z"/>
	<path class="st3" d="M-716.4-396.1c-4.1,0-6-4.5-6.1-4.7c-0.1-0.3,0-0.5,0.3-0.7c0.3-0.1,0.5,0,0.7,0.3c0,0,1.8,4.1,5.2,4.1
		c3.4,0,4.9-3.8,4.9-3.8c0.1-0.3,0.4-0.4,0.6-0.3c0.3,0.1,0.4,0.4,0.3,0.6C-710.6-400.4-712.3-396.1-716.4-396.1z"/>
	<path class="st3" d="M-684.5-391.5c-0.3,0-0.6,0-0.9,0c-0.3,0-0.5-0.3-0.5-0.5s0.3-0.5,0.5-0.5c2.1,0.2,3.7-0.2,4.7-1.2
		c1.2-1.2,1.2-2.8,1.2-2.8c0-0.3,0.2-0.5,0.5-0.5c0.3,0,0.5,0.2,0.5,0.5c0,0.1,0.1,2.1-1.5,3.6C-681-392-682.6-391.5-684.5-391.5z"
		/>
	<path class="st3" d="M-679.2-396.1c-4.1,0-5.8-4.3-5.8-4.4c-0.1-0.3,0-0.5,0.3-0.6c0.3-0.1,0.5,0,0.6,0.3c0,0,1.5,3.8,4.9,3.8
		c3.4,0,5.2-4,5.2-4.1c0.1-0.3,0.4-0.4,0.7-0.3c0.3,0.1,0.4,0.4,0.3,0.7C-673.1-400.6-675.1-396.1-679.2-396.1z"/>
</g>
<g>
	<path class="st8" d="M-611.6-366.8c-9.9-2.1-17.8-7.1-23.9-15.2c-2-2.6-1.8-4.5,0.1-7c5.7-7.7,13.1-12.6,22.3-15
		c10-2.7,20.3-0.5,22.2,0c9,2.4,16.3,7.1,21.9,14.6c2.1,2.7,1.9,4.8,0,7.5c-6,8.2-14.1,12.9-23.8,15.1
		C-595.1-366.3-602.2-364.7-611.6-366.8z M-612.3-371.8c-1.1-1.4-2.6-3.3-2.6-3.3c-3.2-4.1-4.3-8.6-3.4-13.6c0.2-1,0.5-2.1,1.8-1.9
		c1.1,0.2,1.7,0.8,1.5,2.1c-0.2,1-0.3,2-0.3,3c0,6.2,4.5,11.7,10.5,12.7c6.5,1.1,12.7-2.4,14.9-8.2c2.1-5.7-0.8-11.6-5.8-15.5
		c-4.8-3.6-8.2-3.3-16.1-2.6c-9.7,1.6-13.7,5.4-18.1,11.9c-1,1.5-0.9,2.6,0.1,4C-625.2-377.5-619.9-373-612.3-371.8 M-591.1-372.6
		c5.9-0.3,15.4-7.1,16.9-12.1c0.2-0.6,0.2-1.3,0-1.8c-1.6-5.2-12.3-12.3-18-11.9C-583.9-390.6-583.7-384.9-591.1-372.6z"/>
	<path class="st8" d="M-601.6-384.5c-1.2-2.7-2-4.1-2.5-5.7c-0.5-1.3-2.1-2.7-1.1-4.1c1.1-1.5,3.1-0.9,4.7-0.7
		c4.9,0.6,8.6,5.2,8.2,10.2c-0.4,5.2-4.9,9-10.2,8.9c-5-0.2-9.3-4.3-9.5-9.1c-0.1-2.8,0.5-4.3,3.6-2.6
		C-606.6-386.6-604.6-385.8-601.6-384.5z"/>
</g>
<g>
	<path class="st2" d="M-493.9-366.1h-48.3V-400h48.3V-366.1z M-539.4-368.9h42.7v-28.2h-42.7V-368.9z"/>
	<path class="st2" d="M-516.8-375.4l-3.9-9.6l-2.9,4.4h-15.8c-0.8,0-1.4-0.6-1.4-1.4s0.6-1.4,1.4-1.4h14.2l5.1-7.6l3.6,9l2.2-4.1
		h7.6c0.8,0,1.4,0.6,1.4,1.4s-0.6,1.4-1.4,1.4h-5.9L-516.8-375.4z"/>
	<path class="st2" d="M-518.1-357.2c-0.8,0-1.4-0.6-1.4-1.4v-8.8c0-0.8,0.6-1.4,1.4-1.4s1.4,0.6,1.4,1.4v8.8
		C-516.7-357.9-517.3-357.2-518.1-357.2z"/>
	<path class="st2" d="M-510.6-357.2h-15.3c-0.8,0-1.4-0.6-1.4-1.4s0.6-1.4,1.4-1.4h15.3c0.8,0,1.4,0.6,1.4,1.4
		S-509.8-357.2-510.6-357.2z"/>
	<path class="st2" d="M-498.1-356.3c-9.2,0-13.6-9.4-13.8-9.8c-0.3-0.7,0-1.6,0.7-1.9c0.7-0.3,1.6,0,1.9,0.7
		c0.1,0.1,3.9,8.2,11.2,8.2c11.8,0,13.6-10.9,13.7-12v-1.7c0-0.8,0.6-1.4,1.4-1.4s1.4,0.6,1.4,1.4l0,1.9
		C-481.6-370.8-483.4-356.3-498.1-356.3z"/>
	<path class="st2" d="M-478.8-371.4h-9.1v-19.1c-0.8-0.9-2.5-3-2.5-5.5c0-3.5,3-7.4,7.4-7.4c4.3,0,6.9,3.8,6.9,7.5
		c0,2.5-1.8,4.6-2.7,5.5L-478.8-371.4z M-485.1-374.3h3.4l0-17.5l0.6-0.4c0.6-0.5,2.2-2.1,2.2-3.7c0-1.9-1.3-4.7-4-4.7
		c-2.8,0-4.6,2.7-4.6,4.6c0,2,2,3.8,2,3.8l0.5,0.4V-374.3z"/>
	<path class="st2" d="M-474.6-401.5c-0.4,0-0.8-0.2-1.1-0.6c0,0-3-3.8-7.6-3.8c-4.5,0-7.3,3.8-7.4,3.8c-0.5,0.6-1.3,0.8-2,0.3
		c-0.6-0.5-0.8-1.3-0.3-2c0.1-0.2,3.7-5,9.7-5c6,0,9.7,4.7,9.8,4.9c0.5,0.6,0.4,1.5-0.3,2C-474-401.6-474.3-401.5-474.6-401.5z"/>
	<path class="st2" d="M-471.4-406.1c-0.4,0-0.9-0.2-1.2-0.6c-0.1-0.2-3.7-5.1-10.3-5.1c-6.7,0-11.4,5.2-11.5,5.3
		c-0.5,0.6-1.4,0.6-2,0.1c-0.6-0.5-0.6-1.4-0.1-2c0.2-0.3,5.7-6.2,13.6-6.2c8,0,12.4,6.1,12.6,6.4c0.5,0.6,0.3,1.5-0.3,2
		C-470.8-406.2-471.1-406.1-471.4-406.1z"/>
</g>
<g>
	<path class="st2" d="M-393.7-412c0,0-13.4-4.8-17.8,9.4h0c-4.4-14.1-17.8-9.4-17.8-9.4s-11,3.1-7.8,18.3c0.2,0.7,0.4,1.5,0.6,2.3
		h17.5l2.4,4.4l2.2-5.8l2.3,14.4l3.7-21.8l1,0.1v12l2-2.1h18.4c0.4-1.2,0.8-2.3,1-3.4C-382.7-408.8-393.7-412-393.7-412z"/>
	<path class="st2" d="M-405-389.2l-3.5,3.6v-8.6l-3.8,21.9l-2.7-16.6l-1.6,4.3l-3.1-5.8h-16.6c5.3,14.7,24.6,32.1,24.6,32.1h0
		c0,0,18.3-16.5,24.2-31H-405z"/>
</g>
<g>
	<path class="st9" d="M-340.5-356c0,0-5.4-0.5-8.6-8.5c-2.7-7.1-0.2-12.6,5.8-16.7c-3.1-3-9.6-3-7.8-9.1c1.8-6.4,7.6-2.4,11.8-3.6
		c-2.3-3.6-0.8-8-4.5-11.3c-2-1.8-0.6-5.3,1.4-7.1c1.2-1,2.4-2.6,4-2.7c5.5-0.3,5.1,3.5,8.9,1.5c2.6-1,5.6-1,8.3,0
		c3.6,2.3,5.6-1.8,8.9-1.5c1.3,0,2.6,1.2,3.6,2.3c2.2,2.2,3.9,5.4,1.7,7.5c-3.5,3.5-2.6,7.7-4.2,11.5c4.2,0.5,9.3-2.6,11.4,2.9
		c2.4,6.5-4.8,6.6-7.6,9.5c6.5,5.7,8.1,10.1,5.9,16.3c-2.8,8.4-9.8,9-9.8,9s-6.5,0.7-10.9-6.7c-1.5-2.3-4.9-2.4-6.4,0.2
		C-332.8-354.5-340.5-356-340.5-356z M-314.3-383c-0.2-4-2.4-5.6-6.4-4.6c-3.6,0.9-7.3,1.1-10.7-0.4c-2.6-1.1-3.7,0.3-4.5,2.3
		c-0.7,1.9-2.2,4.1,0.7,5.6c3.6,1.9,5.8,4.8,6.8,8.7c0.4,1.5,1.1,2.2,2.7,2.3c1.8,0.1,2.7-0.7,3.2-2.4c0.9-3.7,3-6.6,6.4-8.4
		C-314.8-380.6-314-381.4-314.3-383z M-318.4-396.3c0.1-3.4-2.9-6.3-6.7-6.6c-4-0.2-7.4,2.6-7.6,6.2c-0.1,3.5,2.8,6.3,6.7,6.5
		C-321.9-389.9-318.5-392.7-318.4-396.3z M-306.5-370.2c-0.3-2.4-1.8-4.8-5.2-4.6c-3.6,0.2-5.6,2.7-5.7,6.3
		c-0.1,3.1,1.4,5.4,4.9,5.6C-309.1-362.8-306.4-365.8-306.5-370.2z M-333.5-368.4c-0.4-3.3-1.9-6.1-5.6-6.4
		c-3.4-0.2-5.2,2.1-5.2,5.3c0,3.5,1.6,6.2,5.4,6.5C-335.4-362.7-334.1-365.2-333.5-368.4z"/>
	<path class="st9" d="M-322.3-397.4c-0.6,1.8-2.1,1.9-3.6,1.7c-1.3-0.1-3-0.3-2.6-2.2c0.3-1.7,2-1.6,3.3-1.5
		C-324.1-399.3-322.6-399.3-322.3-397.4z"/>
</g>
<g>
	<rect x="-245.7" y="-408.5" class="st9" width="2.8" height="28.5"/>
	<rect x="-234.1" y="-408.5" class="st9" width="2.8" height="28.5"/>
	<rect x="-246.7" y="-410" class="st9" width="16.7" height="2.8"/>
	<path class="st9" d="M-232.7-383.1h-1.4l0,3.2l1.6,2.1l-8,0.2l-7,12.4c0,0-1.6,2.4-3.2,1.3c-1.3-1,0.2-3.3,0.2-3.3l7.5-12.5l0-3.3
		h-1.3l-11.4,18c0,2.3,1.8,4.1,4.1,4.1h26.4c2.3,0,4.1-1.8,4.1-4.1L-232.7-383.1z"/>
</g>
<path class="st10" d="M-141-365.6l-0.3,0.8l-0.4,1.3c0,0-0.9-0.2-1.7-0.8s-0.1-1.7-0.1-1.7l-0.6-0.8v-1.8h13.9v-1.6h-15.3l0.8-2.7
	l9.4-3.4l-1.3-2.8l-15.8,5.5l0.1,1.5h1.2c0,0,1.2,1.6-0.8,2.3c-3.2,1.3-4.8-1.8-4.8-1.8l1-23.8l0.8-0.3l4.3,13.2l4.3,4.2l2.5-0.8
	l1.3-6l-8.1-27.2l-1.9,0.2l-0.9-2.8l0.9-0.2l-0.3-1.5l-6.3,1.8l0.6,1.2h0.9l0.6,2.3l-0.8,1l0.3,2.9l1.1,6.3c-5.8,0-7.5,4.8-7.5,4.8
	s0,20.6,0,25.3s7.5,6.8,7.5,6.8c-6.6,0-17,5.1-17,5.1v4.7h13v-3h22.1v3h12.9v-4.4C-130.7-364.3-141-365.6-141-365.6z M-152-400.8
	c1.5,0,2.7,1.2,2.7,2.7c0,1.5-1.2,2.7-2.7,2.7s-2.7-1.2-2.7-2.7C-154.7-399.6-153.5-400.8-152-400.8z M-146.7-362
	c-1.5,0-2.7-1.2-2.7-2.7c0-1.5,1.2-2.7,2.7-2.7s2.7,1.2,2.7,2.7C-144-363.2-145.2-362-146.7-362z"/>
<g>
	<path class="st2" d="M-44.7-381.3c-1.2,0-2.2-0.7-2.6-1.8l-1.8-4.7l-5.3,10.6c-0.5,0.9-1.4,1.5-2.4,1.6c0,0-0.1,0-0.1,0
		c-1,0-1.9-0.5-2.4-1.3l-3.4-5.4c-0.5,0.8-1.4,1.2-2.3,1.2h-7.4c7.4,9.3,18.4,17.7,18.4,17.7h0c0,0,11.2-8.5,18.6-17.9H-44.7z"/>
	<path class="st2" d="M-36.9-407c0,0-12.9-3.9-17.1,7.6h0c-4.3-11.5-17.1-7.6-17.1-7.6s-10.6,2.5-7.5,14.9c0.2,0.6,0.4,1.2,0.6,1.8
		l0.3,0.8c0.4,0.9,0.8,1.8,1.3,2.6h9.7l1.4-2.4c0.5-0.9,1.4-1.4,2.4-1.4c1,0,1.9,0.5,2.4,1.3l3.2,5l5.9-11.8c0.5-1,1.5-1.6,2.7-1.6
		c1.1,0.1,2.1,0.8,2.5,1.8l3.4,8.8h11.2c0.3-0.5,0.6-1,0.8-1.6l0.4-0.8c0.4-0.9,0.7-1.9,1-2.8C-26.3-404.4-36.9-407-36.9-407z"/>
</g>
<g>
	<path class="st2" d="M-677.3-198.4c-10,0.5-12.8-5.3-12.8-5.3c-15.9-1.3-26.2,2.2-26.2,2.2c-11.5,23.8,0,46.7,0,46.7h6.4l-1.3-7
		l3.1-3.5c-3-2.8-4.8-6.7-4.8-11.1c0-8.4,6.8-15.2,15.2-15.2s15.2,6.8,15.2,15.2c0,4.4-1.9,8.3-4.8,11.1l3.1,3.6l-1.1,6.9h6.2
		c-0.1-1.1,2-7.3,2-7.3C-670.3-182.3-677.3-198.4-677.3-198.4z"/>
	<polygon class="st2" points="-708,-153.2 -709.6,-161.6 -701.1,-171.3 -694.4,-171.3 -686,-161.5 -687.3,-153.2 	"/>
	<path class="st2" d="M-697.8-190.1c-7.6,0-13.7,6.1-13.7,13.7c0,3.9,1.7,7.5,4.3,9.9l4.8-5.5c-1.1-1.2-1.8-2.7-1.8-4.5
		c0-3.5,2.9-6.4,6.4-6.4c3.5,0,6.4,2.9,6.4,6.4c0,1.7-0.7,3.3-1.8,4.4l4.7,5.5c2.6-2.5,4.3-6,4.3-9.9
		C-684.1-184-690.2-190.1-697.8-190.1z"/>
</g>
<g>
	<path class="st8" d="M-730.2-291.5c0,0,15.5-0.7,23.5-0.5c2.8,0.1,5.3,0.9,5.2,3.9c-0.1,2.9-2.3,4.2-5.2,4.2c-4.3,0-8.6,0.1-12.9,0
		c-1.5,0-4,0.6-4-1.6c0-2.7,2.7-1.8,4.3-1.9c3.5,0,7-0.1,10.4-1.1c0.7-0.2,1.3-0.7,1.8-1.8c-5.5,1.2-11-0.1-16.3,1
		c-1.3,0.3-2.6,1.3-2.6,2.7c0,3.2-2.2,2.7-4.1,2.6C-730.2-286.3-730.2-289.2-730.2-291.5z"/>
	<rect x="-730.2" y="-280.8" class="st8" width="38.2" height="3.4"/>
	<circle class="st8" cx="-695.4" cy="-290" r="4.5"/>
	<path class="st8" d="M-693.7-314c-12.1,0-22.4,7.6-26.5,18.2h9.4c3.5-5.8,9.8-9.7,17.1-9.7c10.9,0,19.9,8.9,19.9,19.9
		c0,10.9-8.9,19.9-19.9,19.9c-7.2,0-13.6-3.9-17.1-9.7h-9.4c4.1,10.7,14.4,18.2,26.5,18.2c15.6,0,28.4-12.7,28.4-28.4
		S-678-314-693.7-314z"/>
	<path class="st8" d="M-693.7-303.7c-6.2,0-11.7,3.2-15,8h7.8c2-1.4,4.5-2.3,7.2-2.3c6.8,0,12.4,5.6,12.4,12.4s-5.6,12.4-12.4,12.4
		c-2.7,0-5.1-0.9-7.2-2.3h-7.8c3.3,4.8,8.8,8,15,8c10,0,18.1-8.1,18.1-18.1S-683.7-303.7-693.7-303.7z"/>
</g>
<g>
	<circle class="st8" cx="-604.5" cy="-308.4" r="9.3"/>
	<circle class="st8" cx="-609.8" cy="-287.6" r="4.6"/>
	<circle class="st8" cx="-598.3" cy="-287.6" r="4.6"/>
	<path class="st8" d="M-585-277.6h-35.8c-3,0-5.4-2.4-5.4-5.4v-9.2c0-3,2.4-5.4,5.4-5.4h35.8v2.8h-35.8c-1.4,0-2.6,1.2-2.6,2.6v9.2
		c0,1.4,1.2,2.6,2.6,2.6h35.8V-277.6z"/>
	<rect x="-585" y="-302.6" class="st8" width="6.7" height="30.7"/>
	<path class="st8" d="M-620.2-253.6c0,0-0.1-15.7,4.6-22.7h23.5c0,0,4.4,10.4,4.4,22.7H-620.2z"/>
	<polygon class="st8" points="-619.7,-276.3 -617,-276.3 -619.7,-270.7 	"/>
	<polygon class="st8" points="-588.7,-276.3 -591.5,-276.3 -588.7,-270.7 	"/>
</g>
<path class="st11" d="M-514.5-263.8c2.3-1.2,4.4-2.6,6.1-4.6v6.7c0,1.2,1,2.2,2.2,2.2c1.2,0,2.2-1,2.2-2.2v-7
	c1.7,2.2,3.8,3.7,6.3,4.9c3,1.4,6.4,2.1,10.2,2.4c0.6,0.1,1.1-0.4,1.2-1c0.1-0.6-0.4-1.1-1-1.2c-3.6-0.3-6.8-1-9.5-2.2
	c-2.6-1.2-4.8-3-6.5-5.6c-0.2-0.3-0.4-0.4-0.7-0.5v-1.9c2.3,2,5,3.5,8,4.6c3.9,1.4,8.1,2.2,12,2.7c0.6,0.1,1.2-0.4,1.2-1
	c0.1-0.6-0.4-1.2-1-1.2c-3.8-0.4-7.9-1.2-11.5-2.5c-3.4-1.3-6.5-3.1-8.8-5.7v-0.5c3,1.8,6.6,2.7,10.2,3c4.1,0.4,8.4,0,12.3-0.6
	c0.6-0.1,1-0.7,0.9-1.3c-0.1-0.6-0.7-1-1.3-0.9c-3.8,0.6-7.9,0.9-11.8,0.6c-3.8-0.3-7.4-1.4-10.4-3.5v-1.5c3.9,0.9,7.7,1.3,11.4,1.2
	c4-0.1,7.9-0.8,11.7-2c0.6-0.2,0.9-0.8,0.7-1.4c-0.2-0.6-0.8-0.9-1.4-0.7c-3.6,1.1-7.3,1.8-11.1,1.9c-3.7,0.1-7.4-0.3-11.3-1.2v-3.9
	c3.7,0.9,7.3,1.3,10.8,1.2c3.8-0.1,7.5-0.8,11-2c0.6-0.2,0.9-0.8,0.7-1.4c-0.2-0.6-0.8-0.9-1.4-0.7c-3.4,1.1-6.8,1.8-10.4,1.9
	c-3.5,0.1-7-0.3-10.7-1.2v-3.9c3.4,0.8,6.7,1.1,9.9,1c3.7-0.1,7.3-0.8,10.7-2c0.6-0.2,0.9-0.8,0.7-1.4c-0.2-0.6-0.8-0.9-1.4-0.7
	c-3.3,1.1-6.6,1.8-10.1,1.9c-3.2,0.1-6.4-0.2-9.8-1.1v-3.5c3,0.7,5.9,1,8.8,0.9c3.4-0.1,6.8-0.8,10-2c0.6-0.2,0.9-0.8,0.7-1.4
	c-0.2-0.6-0.8-0.9-1.4-0.7c-3,1.1-6.1,1.8-9.3,1.9c-2.8,0.1-5.7-0.2-8.7-1v-3.7c1.8,0.5,3.5,0.7,5.2,0.6c2.5-0.1,4.9-0.9,7.3-2.1
	c0.5-0.3,0.8-0.9,0.5-1.5c-0.3-0.5-0.9-0.8-1.5-0.5c-2.1,1.1-4.2,1.7-6.4,1.8c-1.7,0.1-3.4-0.1-5.1-0.7l0,0v-1.7
	c0-1.2-1-2.2-2.2-2.2c-1.2,0-2.2,1-2.2,2.2v1.8c-1.7,0.5-3.3,0.7-4.9,0.6c-2.2-0.1-4.3-0.8-6.4-1.8c-0.5-0.3-1.2-0.1-1.5,0.5
	c-0.3,0.5-0.1,1.2,0.5,1.5c2.3,1.2,4.8,1.9,7.3,2.1c1.6,0.1,3.3-0.1,5-0.5v3.7c-2.9,0.7-5.7,1-8.5,0.9c-3.2-0.1-6.3-0.8-9.3-1.9
	c-0.6-0.2-1.2,0.1-1.4,0.7c-0.2,0.6,0.1,1.2,0.7,1.4c3.2,1.2,6.5,1.9,10,2c2.8,0.1,5.6-0.2,8.5-0.9v3.5c-3.3,0.8-6.5,1.2-9.6,1
	c-3.5-0.1-6.8-0.8-10.1-1.9c-0.6-0.2-1.2,0.1-1.4,0.7c-0.2,0.6,0.1,1.2,0.7,1.4c3.5,1.2,7,1.9,10.7,2c3.1,0.1,6.4-0.2,9.7-1v3.9
	c-3.6,0.9-7.1,1.3-10.5,1.2c-3.6-0.1-7-0.8-10.4-1.9c-0.6-0.2-1.2,0.1-1.4,0.7c-0.2,0.6,0.1,1.2,0.7,1.4c3.6,1.2,7.2,1.9,11,2
	c3.4,0.1,6.9-0.2,10.6-1.1v3.9c-3.8,0.9-7.5,1.3-11.1,1.2c-3.8-0.1-7.5-0.8-11.1-1.9c-0.6-0.2-1.2,0.1-1.4,0.7
	c-0.2,0.6,0.1,1.2,0.7,1.4c3.8,1.2,7.7,1.9,11.7,2c3.6,0.1,7.4-0.2,11.2-1.1v1.6c-2.9,2-6.5,3-10.2,3.3c-3.9,0.4-8,0-11.8-0.6
	c-0.6-0.1-1.2,0.3-1.3,0.9c-0.1,0.6,0.3,1.2,0.9,1.3c3.9,0.6,8.2,0.9,12.3,0.6c3.6-0.3,7-1.2,10-2.9v0.6c-2.2,2.5-5.3,4.2-8.6,5.4
	c-3.7,1.4-7.7,2.1-11.5,2.5c-0.6,0.1-1,0.6-1,1.2c0.1,0.6,0.6,1,1.2,1c4-0.5,8.2-1.2,12-2.7c2.9-1.1,5.6-2.5,7.8-4.4v1.7
	c-0.2,0.1-0.4,0.2-0.5,0.4c-1.6,2.6-3.8,4.4-6.5,5.6c-2.7,1.2-5.9,1.9-9.5,2.2c-0.6,0.1-1.1,0.6-1,1.2c0.1,0.6,0.6,1,1.2,1"/>
<g>
	<g>
		<path class="st12" d="M-411.6-314.7c-4.5,0-8.7,1-12.5,2.8c1.9,1.4,4.1,3.5,3.7,5.8c-0.2,1.5-1,2.3-1.6,2.8
			c-1.2,0.8-2.6,0.7-3.1,0.6c-0.3,0-0.9,0-1.1,0.3c-0.2,0.2-0.2,0.7,0,1.3c0.1,0.3,0.7,0.7,1.2,1c1.2,0.7,3.3,2.1,2.1,5l-0.1,0.2
			c-0.7,1.2-1.8,2.1-2.7,2.9c-0.6,0.5-1.5,1.3-1.6,1.7c0,0,0.1,0.1,0.4,0.4c0.7,0.2,2.5,0.8,4.6,1.7c0.5-1.4,1.7-4.1,3.7-4.7
			c0.7-0.2,1.9-0.2,3.1,1c0.6,0.6,1.1,1.1,1.5,1.7c0-0.6,0-1.1-0.1-1.3c-0.3-0.3-0.6-11,9.4-10.5s12.3,5.5,13.4,8.9
			c1.2,3.5-3.8,7.5-3.8,7.5s0.3,1.6,0.3,1.8s0.6,0.4-0.6,1c-1.2,0.6-1.9,0.9-2.5,0.9s-2.8,0-2.8,0s-0.9,0.2-0.8,0.4s2.5,5.4,2.5,5.9
			s-0.1,1.2-0.6,1.7s-1.3,1.2-1.6,1.2s-0.9,0.6-1.8,0.8c-0.9,0.3-2.4,0.7-5.1-0.3c-0.5-0.6-0.8-1.5-1.2-1.4
			c-0.3,0.1-3.4,2.5-3.2,2.8s-0.5,1.4-0.3,1.7c0.2,0.3-0.6,1.6-0.7,2.2c-0.1,0.6-0.3,2.2-0.3,2.2s2.5,0.3,2.8,0.4
			c0.3,0.2,2.1,3.8-1.4,4.3c-3.5,0.5-4.8,0.3-5.4,0c-0.6-0.3-0.8-0.8-0.8-0.8l0.4-11.7l-0.4-0.2l-2.3-1.2l-2.1,0l0.8-0.9
			c0,0-1.3-1.4-2-1.5c-0.8-0.1-9.9-1.8-9.9-1.8v-6c0,0,3-2.1,3,1.1l0.2,1.2l7.4,0.2c0,0,0.8-1.5,1.9-1.2s1.2,1.2,1.6,1.7
			c0.4,0.5,1.3,1.1,1.5,1.2c0-0.1,0-0.3,0-0.5c0-0.4,0.4-0.9,0.8-1.3c-0.4-0.4-1-0.9-2.1-1.7c-2.8-2-8-3.5-8.1-3.5l-0.2-0.1
			l-0.2-0.1c-1.1-0.8-1.7-1.7-1.8-2.7c-0.1-1.6,1.2-2.8,2.6-4c0.8-0.7,1.6-1.4,2.2-2.2c0.2-0.4,0.1-0.6-1.1-1.3
			c-0.9-0.6-2.1-1.4-2.5-2.8c-0.5-2,0.1-3.2,0.7-3.8c1.3-1.4,3.3-1.2,3.5-1.2l0.2,0c0.1,0,0.7,0.1,1-0.2c0.2-0.1,0.3-0.4,0.4-0.8
			c0.1-0.9-1.7-2.6-3.7-3.9c-8.3,5.1-13.7,14.2-13.7,24.7c0,16,13,29,29,29c16,0,29-13,29-29S-395.5-314.7-411.6-314.7z"/>
		<path class="st12" d="M-415.4-288.9c-0.3-0.4-0.5-0.3-1.2-0.9c-0.7-0.7-1.2-0.5-1.3-0.5c-0.9,0.3-1.3,1.8-1.8,3.3
			c0.8,0.4,0.8,0.5,1.5,0.9c1.4,1,2.2,1.7,2.8,2.3c0.1-0.1,0.2-0.1,0.2-0.1l-1.6-2.5c0,0-1.3-0.6-0.7-1.1
			C-416.9-287.9-415.9-288.6-415.4-288.9z"/>
	</g>
	
		<rect x="-402.3" y="-301.8" transform="matrix(0.9979 6.444502e-002 -6.444502e-002 0.9979 -20.1297 25.2689)" class="st12" width="1" height="4.7"/>
	
		<rect x="-400.3" y="-301.5" transform="matrix(0.9983 5.860750e-002 -5.860750e-002 0.9983 -18.2336 22.9183)" class="st12" width="1" height="4.3"/>
	
		<rect x="-398.3" y="-301.5" transform="matrix(1 7.812262e-003 -7.812262e-003 1 -2.3486 3.099)" class="st12" width="1" height="4.9"/>
	
		<rect x="-410" y="-288.8" transform="matrix(0.7439 0.6683 -0.6683 0.7439 -297.3087 199.0229)" class="st12" width="3.3" height="0.7"/>
	
		<rect x="-407.5" y="-291.2" transform="matrix(0.9971 7.664676e-002 -7.664676e-002 0.9971 -23.4525 30.322)" class="st12" width="1.6" height="1.7"/>
	<path class="st12" d="M-407.2-293.7c-0.9-1.6-2.5-1.6-2.5-1.6l0-1c0.1,0,2.2,0.1,3.4,2.1L-407.2-293.7z"/>
	<path class="st12" d="M-400.9-289.7c0-0.4-0.2-0.8-0.4-1c-0.5-0.5-1.4-0.4-1.5-0.4l-0.1-1c0.1,0,1.3-0.1,2.2,0.6
		c0.5,0.4,0.7,1,0.8,1.7L-400.9-289.7z"/>
</g>
<g>
	<path class="st12" d="M-334.8-294.1c0,0,2.4-2.2,8.4,0.4c6,2.6,7.5,3.8,10,3.4c2.5-0.4,6.8-2.3,7,3.9c0,7.3-7.1,10.3-7.1,10.3
		s-3.8,1.1-4.4-3.7c-0.6-2.2-2.5-2.7-2.5-2.7s-8.5-3.5-10.8-5.9c-2.3-2.5-2-4.7-2-4.7L-334.8-294.1z"/>
	<path class="st12" d="M-339.6-270.9c-5.2,0-12.5-5.3-13.5-6l1-1.4c3.1,2.2,11.6,7.5,14.6,5c1.2-0.9,1.8-1.9,1.9-3.1
		c0.3-2.9-2.3-5.9-2.4-5.9c-0.6-0.7-6.4-6.9-5.4-10.4c0.2-0.8,0.8-1.8,2.5-2.2c3.6-0.8,8.1,1.9,8.3,2l-0.9,1.5c0,0-4.2-2.5-7.1-1.8
		c-1,0.2-1.2,0.7-1.3,1c-0.6,2,2.8,6.5,5,8.8c0.2,0.2,3.2,3.6,2.8,7.3c-0.2,1.7-1,3.1-2.6,4.3C-337.3-271.2-338.4-270.9-339.6-270.9
		z"/>
	<path class="st12" d="M-313.1-272.8c0,0,7.8-6.2,7.7-16.2C-303.6-277.2-313.1-272.8-313.1-272.8z"/>
	<path class="st12" d="M-311-272.1c0,0,7.8-6.2,7.7-16.2C-301.5-276.5-311-272.1-311-272.1z"/>
	<path class="st12" d="M-309.1-271.1c0,0,7.8-6.2,7.7-16.2C-299.6-275.5-309.1-271.1-309.1-271.1z"/>
	<path class="st12" d="M-325.4-255.9c-16.4,0-29.8-13.3-29.8-29.8s13.3-29.8,29.8-29.8s29.8,13.3,29.8,29.8S-309-255.9-325.4-255.9z
		 M-325.4-312.6c-14.8,0-26.9,12.1-26.9,26.9s12.1,26.9,26.9,26.9s26.9-12.1,26.9-26.9S-310.6-312.6-325.4-312.6z"/>
</g>
<path class="st12" d="M-266.8-263.4c0,0-0.7-15,4.5-16.2c5.2-1.2,9.5,1,9.5,1s8.5,7.2,13.8-0.2c5.3-7.3,3.5-10.2,3.5-10.2
	s2.7-2.8,2.7-4s-3.3,1.6-3.3,1.6s-5.5-4.6-6.3-12.1l4.2-3.3c0,0,1.5-1.5,2.3,1.3s3.9,4.6,3.9,4.6s0.6-9.6,9.1-8.8
	c8.5,0.8,12.1,7.8,13.2,14.6c0,22.2-16.9,30.3-16.9,30.3s-13.7,7-22.8-1.3c-1.6-1.3-4.9-3.8-4.9-3.8s-4.7-4.8-4.8,1
	c-0.2,6.9-3.7,4.8-4.7,5C-264.9-263.5-266.8-263.4-266.8-263.4z"/>
<g>
	<g>
		<path class="st2" d="M-149.9-287.1c-0.6-1.8-0.9-3.7-0.9-5.8c0-3.3,0.9-6.5,2.4-9.2c-2.6,0.9-5.1,2.7-6.6,6.2h0
			c-4-9.7-15.9-6.4-15.9-6.4s-9.8,2.1-6.9,12.6c0.1,0.5,0.3,1,0.6,1.6h15.7l2.1,3l1.9-4l2.1,9.9l3.3-14.9l0.9,0.1v8.2L-149.9-287.1z
			"/>
		<path class="st2" d="M-149.4-286.5l-2.8,2.2v-5.9l-3.4,15l-2.4-11.3l-1.4,3l-2.8-4H-177c4.8,10,22,21.9,22,21.9h0
			c0,0,7.1-4.9,13.5-11.1C-145.2-278.9-148-282.3-149.4-286.5z"/>
	</g>
	
		<rect x="-145.1" y="-287.7" transform="matrix(0.7547 -0.656 0.656 0.7547 153.0685 -164.2014)" class="st2" width="4" height="1.8"/>
	
		<rect x="-146.4" y="-293.5" transform="matrix(0.999 4.419705e-002 -4.419705e-002 0.999 -13.0749 6.0961)" class="st2" width="4" height="1.8"/>
	
		<rect x="-145.1" y="-299.5" transform="matrix(0.8177 0.5756 -0.5756 0.8177 -197.9287 27.9322)" class="st2" width="4" height="1.8"/>
	
		<rect x="-140.1" y="-303.3" transform="matrix(0.4568 0.8896 -0.8896 0.4568 -344.0086 -41.4336)" class="st2" width="4" height="1.8"/>
	
		<rect x="-134.8" y="-304.6" transform="matrix(-7.585794e-002 0.9971 -0.9971 -7.585794e-002 -445.71 -194.3571)" class="st2" width="4" height="1.8"/>
	<g>
		<path class="st2" d="M-139.7-288.2v-1.2l1.1-1c1.8-1.6,2.7-2.6,2.7-3.6c0-0.7-0.4-1.2-1.4-1.2c-0.7,0-1.4,0.4-1.8,0.7l-0.6-1.4
			c0.6-0.5,1.6-0.9,2.8-0.9c1.9,0,2.9,1.1,2.9,2.6c0,1.4-1,2.5-2.2,3.6l-0.8,0.6v0h3.2v1.6H-139.7z"/>
		<path class="st2" d="M-129.1-288.2v-2h-3.7v-1.3l3.2-5.1h2.4v4.9h1v1.5h-1v2H-129.1z M-129.1-291.7v-1.9c0-0.5,0-1,0.1-1.6h-0.1
			c-0.3,0.5-0.5,1-0.8,1.6l-1.1,1.8v0H-129.1z"/>
	</g>
	<path class="st2" d="M-132.8-280.3c-0.7,0-1.5-0.1-2.2-0.2l0.4-2.2c0.6,0.1,1.2,0.2,1.8,0.2c5.6,0,10.2-4.6,10.2-10.2
		c0-3.8-2.1-7.2-5.4-9l1.1-2c4,2.2,6.6,6.4,6.6,11C-120.3-285.9-125.9-280.3-132.8-280.3z"/>
	<polygon class="st2" points="-134.5,-284.8 -139.8,-281.4 -134.5,-277.4 	"/>
</g>
<g>
	<path class="st2" d="M-43.4-259.9c-2.1,0-4.2-2.1-4.6-2.6c-0.4-0.4-1.5-2-2.2-2.9c-0.6,0.3-1.5,0.7-2.5,0.7c-0.9,0-2.1-0.3-3-1.6
		c-0.8,0.6-2,1.3-3.5,1.3c-1.1,0-2.2-0.3-3.3-1c-3.2-2-3.8-3.8-3.8-4.8l-0.5-0.4c-0.7,0.5-1.8,1-3.2,1c-1.7,0-3.2-0.9-4.5-2.6
		c-0.5-0.7-0.9-1.2-1.2-1.7c-0.2,0-0.3,0-0.5-0.1c-1.1-0.3-2.2-1.5-2.8-3.1c-0.9-2.3-0.7-4.8,0.5-6.7c1.1-1.7,1.6-2.3,1.8-2.5
		c0-0.1,0.1-0.1,0.1-0.1c0-0.1,0.1-0.2,0.1-0.4c0.1-0.2,0.1-0.3,0.1-0.4c0.2-0.6,0.5-1.6,1.6-1.8c0-0.2,0-0.3,0-0.5
		c0.1-0.7,0.6-1.5,1.4-2.1c2-1.5,5-3.1,6.8-3.1c0.5,0,0.9,0.1,1.2,0.3c0.9-1.2,2.2-2.1,3.8-2.5c4.5-1.1,8.4-1.3,10.3-0.5
		c0.3,0.1,1,0.2,1.6,0.2c1.5,0.1,3.4,0.2,5.2,1.6c0.9,0.7,1.8,1,2.8,1.4c1.4,0.6,3.1,1.2,4.7,3c2.3,2.5,3.9,4.4,4.2,4.9
		c0.7,0.6,3.8,3.2,4.1,5.9c0.1,1-0.1,2-0.8,2.8c-1.3,1.6-2.6,2.5-3.8,3c1.6,0.7,2.5,1.7,2.6,2.9c0.4,3.5-5.4,7.2-6.6,7.9l-0.3,0.1
		c-0.1,0-1.7,0.4-3.6,0.6c0.3,1,0.3,1.9-0.3,2.7C-41.7-260.3-42.5-259.9-43.4-259.9z M-49.8-268.1l0.6,0.8c0,0,2.2,3,2.7,3.6
		c0.4,0.4,2,1.9,3,1.9c0.2,0,0.5-0.1,0.8-0.4c0.2-0.3,0.1-0.9-0.3-1.6c-1.7-0.2-2.7-0.9-3.2-2c-0.1-0.2-0.4-1,0-1.6
		c0.2-0.3,0.6-0.5,1-0.5c1,0,2.4,1.2,3.2,2.2c1.7,0,3.6-0.4,4.1-0.5c2.4-1.5,5.7-4.2,5.5-5.9c-0.1-0.9-1.4-1.4-2.4-1.7
		c-1-0.3-2.2-0.5-3.4-0.5c-5.1,0-10,2.8-11,3.3c-0.4,0.2-0.5,0.3-0.8,0.3l-0.8,0l-0.2-0.7c-0.2-0.7,0.4-1.1,0.8-1.3
		c0.1-0.1,0.4-0.3,0.7-0.5c4.9-3.4,13.2-3.4,13.6-3.4c0.1,0,2.8,0,5.1-3c0.3-0.4,0.4-0.8,0.4-1.3c-0.2-1.8-2.6-4-3.4-4.7l-0.2-0.2
		c0,0-1.6-2.1-4.2-4.8c-1.4-1.4-2.7-2-4-2.5c-1-0.4-2.1-0.9-3.2-1.7c-1.3-1-2.8-1.1-4.1-1.2c-0.8,0-1.6-0.1-2.3-0.4
		c-0.2-0.1-0.9-0.3-2.4-0.3c-1.3,0-3.4,0.2-6.6,1c-1.9,0.5-3,1.6-3.4,3.3c0,1.1-0.1,1.8-0.1,1.9l-1.2,5.8l-0.8-5.9
		c0-0.1-0.1-0.9,0.1-2c0-0.3,0-0.6-0.1-0.9c0,0,0,0-0.1,0c-1.1,0-3.7,1.2-5.6,2.7c-0.6,0.5-0.7,0.7-0.7,0.8c0,0.1,0.1,0.3,0.2,0.4
		c0.1,0.2,0.5,0.7,0.2,1.3c-0.1,0.1-0.3,0.6-1,0.6c-0.1,0-0.3,0-0.5-0.1c-0.2,0-0.4-0.1-0.5-0.1c0,0.1-0.1,0.3-0.1,0.4
		c0,0.2-0.1,0.3-0.2,0.5c-0.2,0.6-0.3,0.7-0.6,1.1c-0.2,0.3-0.6,0.8-1.7,2.4c-0.9,1.4-1,3.2-0.3,4.9c0.3,0.8,0.8,1.4,1.1,1.7
		l0.1-0.2l1,0l0.3,0.3c0.2,0.2,0.3,0.4,0.3,0.6c0.2,0.3,0.6,0.9,1.4,2c0.9,1.2,1.9,1.8,2.9,1.8c1.4,0,2.5-1,2.5-1l0.6-0.6l2.7,2.3
		l-0.3,0.7c0,0,0,0,0,0c0,0-0.2,1.3,2.9,3.2c0.8,0.5,1.5,0.7,2.2,0.7c1.8,0,2.9-1.6,2.9-1.6l1-1.5l0.7,1.7c0.7,1.7,1.6,1.7,1.9,1.7
		c0,0,0,0,0,0c0.9,0,1.8-0.6,2.1-0.8L-49.8-268.1z"/>
	<path class="st2" d="M-76.6-294.9l-2.9-7.4c-0.1-0.4,0-0.8,0.4-0.9c0.4-0.1,0.8,0,0.9,0.4l1.6,4.1l1.9-4.6l2.5,6.6
		c0.1,0.4,0,0.8-0.4,0.9c-0.4,0.1-0.8,0-0.9-0.4l-1.2-3.3L-76.6-294.9z"/>
	<path class="st2" d="M-63.5-299.8c-0.4,0-0.7-0.3-0.7-0.7l-0.2-3.5l-3.2,3.8l-0.6-7.9c0-0.4,0.3-0.7,0.7-0.8c0.4,0,0.7,0.3,0.8,0.7
		l0.3,4.4l3.2-3.9l0.4,7.1C-62.7-300.2-63-299.9-63.5-299.8C-63.4-299.8-63.4-299.8-63.5-299.8z"/>
	<path class="st2" d="M-53-301.7c0,0-0.1,0-0.1,0c-0.4-0.1-0.6-0.4-0.6-0.8l0.6-3.4l-4,3l1.3-7.8c0.1-0.4,0.4-0.6,0.8-0.6
		c0.4,0.1,0.6,0.4,0.6,0.8l-0.7,4.3l4-3l-1.2,7C-52.3-302-52.6-301.7-53-301.7z"/>
	<path class="st2" d="M-43.3-299.7c-0.1,0-0.3,0-0.4-0.1c-0.3-0.2-0.4-0.6-0.2-1l1.8-3l-4.8,1.3l4.1-6.8c0.2-0.3,0.6-0.4,1-0.2
		c0.3,0.2,0.4,0.6,0.2,1l-2.3,3.8l4.8-1.4l-3.7,6C-42.8-299.9-43.1-299.7-43.3-299.7z"/>
	<path class="st2" d="M-34.5-294.5c-0.2,0-0.4-0.1-0.5-0.2c-0.3-0.3-0.2-0.7,0-1l2.6-2.4l-5,0l5.8-5.4c0.3-0.3,0.7-0.3,1,0
		c0.3,0.3,0.3,0.7,0,1l-3.2,3l5,0l-5.2,4.8C-34.1-294.6-34.3-294.5-34.5-294.5z"/>
	<path class="st2" d="M-69.9-275.8C-69.9-275.8-69.9-275.8-69.9-275.8c-0.1,0-3.6-0.7-3.9-4.9c0-0.3,0.2-0.5,0.5-0.5
		c0.3,0,0.5,0.2,0.5,0.5c0.2,3.4,2.9,3.9,3,4c0.3,0.1,0.4,0.3,0.4,0.6C-69.4-276-69.6-275.8-69.9-275.8z"/>
	<path class="st2" d="M-72-283.3C-72-283.3-72.1-283.3-72-283.3c-0.3,0-0.5-0.2-0.5-0.5c0-0.1,0.1-1.5,1.2-2.3
		c0.8-0.5,1.8-0.6,3-0.1c0.3,0.1,0.4,0.4,0.3,0.6c-0.1,0.3-0.4,0.4-0.6,0.3c-0.9-0.3-1.6-0.3-2.1,0c-0.7,0.5-0.7,1.5-0.7,1.5
		C-71.6-283.5-71.8-283.3-72-283.3z"/>
	<path class="st2" d="M-65-285.3c-0.2,0-0.3-0.1-0.4-0.2c-0.1-0.2-0.1-0.4,0-0.6c0-0.1,0-0.2,0.1-0.4c0.2-1.1,0.9-4.1,3.7-3.7
		c1.6,0.3,2.4,0.6,2.8,1l0.7-0.9l-2-2.7c0-0.1-0.1-0.1-0.1-0.1l0.8-0.6l0.1,0.1c0.6,0.8,2.2,2.5,3.6,2.3c0.9-0.1,1.8-1.1,2.4-2.9
		c0.1-0.3,0.4-0.4,0.6-0.3c0.3,0.1,0.4,0.4,0.3,0.6c-0.8,2.2-1.9,3.3-3.2,3.5c-0.5,0.1-1,0-1.5-0.2l0.1,0.1l-2.6,3.5l0.2-1.7
		c-0.1-0.1-0.5-0.6-2.5-0.9c-1.7-0.3-2.2,1.2-2.6,2.9c-0.1,0.5-0.2,0.7-0.4,0.9C-64.8-285.3-64.9-285.3-65-285.3z"/>
	<path class="st2" d="M-64.6-278.9c-2.5,0-5.1-2.4-5.2-2.5c-0.2-0.2-0.2-0.5,0-0.7c0.2-0.2,0.5-0.2,0.7,0c0,0,3,2.8,5.2,2.2
		c1-0.3,1.8-1.3,2.3-2.9c0.1-0.3,0.3-0.4,0.6-0.3c0.3,0.1,0.4,0.4,0.3,0.6c-0.6,2-1.6,3.3-3,3.6C-63.9-278.9-64.2-278.9-64.6-278.9z
		"/>
	<path class="st2" d="M-65.3-275.2c-0.3,0-0.5-0.2-0.5-0.5c0-0.1-0.2-2.5,1.4-4.3c1-1.1,2.5-1.7,4.4-1.7c0.8,0,1.5,0,2.1,0
		c4,0,4.2,0,4.3-1.8c0.1-2.2-1.2-3.1-1.5-3.2c-0.2,0-0.4-0.2-0.5-0.4c-0.1-0.3,0.1-0.5,0.4-0.6c0.4-0.1,1,0.3,1.2,0.5
		c0.5,0.4,1.6,1.6,1.4,3.7c-0.2,2.8-1.4,2.8-5.3,2.8c-0.6,0-1.3,0-2.1,0c-1.6,0-2.8,0.5-3.6,1.3c-1.3,1.4-1.1,3.5-1.1,3.5
		C-64.8-275.5-65-275.2-65.3-275.2C-65.3-275.2-65.3-275.2-65.3-275.2z"/>
	<path class="st2" d="M-52.3-283.6c-0.7,0-1.1-0.2-1.1-0.2c-0.2-0.1-0.4-0.4-0.2-0.7c0.1-0.2,0.4-0.3,0.7-0.2c0,0,0.7,0.3,1.5,0
		c0.8-0.3,1.5-1.2,2-2.6c1.3-3.6,3.2-3.1,4-2.9c0,0,0,0,0,0c0.4-0.4,1.3-1,1.8-1.4c0.2-0.2,0.5-0.1,0.7,0.1c0.2,0.2,0.1,0.5-0.1,0.7
		c-0.7,0.5-1.6,1.2-1.8,1.4c-0.2,0.4-0.7,0.3-0.9,0.2c-0.7-0.2-1.8-0.4-2.8,2.3c-0.6,1.6-1.5,2.7-2.5,3.1
		C-51.6-283.6-52-283.6-52.3-283.6z"/>
	<path class="st2" d="M-47.2-289.2c-0.2,0-0.4-0.1-0.5-0.3l-1.2-2.5c-0.1-0.2,0-0.5,0.2-0.7c0.2-0.1,0.5,0,0.7,0.2l1.2,2.5
		c0.1,0.2,0,0.5-0.2,0.7C-47-289.2-47.1-289.2-47.2-289.2z"/>
	<path class="st2" d="M-59.8-270.7c-0.2,0-0.3-0.1-0.4-0.2c0,0-0.7-1.1-0.2-2.3c0.3-0.8,1.1-1.4,2.3-1.7c2.3-0.6,2.2-1.2,2.2-1.6
		c0-0.1,0-0.2,0-0.3c0-0.6,0.8-1.5,1.2-2l0.1-0.1c0.1,0,0.7-0.4,1.5-0.2c0.7,0.2,1.3,0.9,1.7,2c0.8,2,0.7,2.6,0.5,2.9l-0.1,0.2
		l-0.3,0.1c-0.3,0-0.5-0.2-0.5-0.5c0-0.1,0-0.3,0.1-0.4c0-0.2-0.1-0.7-0.6-2c-0.3-0.8-0.7-1.2-1.1-1.4c-0.3-0.1-0.5,0-0.6,0
		c-0.5,0.5-0.9,1.1-0.9,1.3c0,0,0,0.1,0,0.1c0.1,1-0.1,1.9-2.9,2.7c-0.9,0.2-1.4,0.6-1.6,1.1c-0.3,0.7,0.2,1.4,0.2,1.4
		c0.1,0.2,0.1,0.5-0.2,0.7C-59.6-270.7-59.7-270.7-59.8-270.7z"/>
	<path class="st2" d="M-47.8-275.2c-0.1,0-0.3-0.1-0.4-0.2c-0.1-0.1-0.7-0.9-0.6-1.9c0.1-0.5,0.3-0.9,0.7-1.2c0.5-0.4,0.8-0.8,1-1.1
		l-4.5-1.2l0.2-0.5c0.1-0.2,0.6-1.1,3.3-2.3c1.1-0.5,1.8-0.9,2.3-1.2c0.7-0.4,1.2-0.7,1.8-0.6c0.4,0,0.9,0,1.3-0.1
		c-0.2-0.6-0.4-1.6,0.1-2.2c0.4-0.5,1.1-0.6,2-0.4l2.7,0.6c0.3,0.1,0.4,0.3,0.4,0.6c-0.1,0.3-0.3,0.4-0.6,0.4l-2.7-0.6
		c-0.5-0.1-0.9-0.1-1,0.1c-0.2,0.3,0,1.2,0.2,1.7l0.2,0.5l-0.5,0.2c-0.1,0-1.3,0.4-2.2,0.3c-0.3,0-0.5,0.1-1.2,0.5
		c-0.5,0.3-1.3,0.7-2.4,1.3c-1.2,0.6-1.9,1-2.3,1.3l4.2,1.1l-0.1,0.5c0,0.1-0.3,1-1.6,2c-0.2,0.2-0.3,0.3-0.3,0.5
		c-0.1,0.5,0.3,1,0.4,1.1c0.2,0.2,0.1,0.5-0.1,0.7C-47.5-275.2-47.6-275.2-47.8-275.2z"/>
	<path class="st2" d="M-54-270.7c-0.3,0-0.5-0.2-0.5-0.5c0-0.2-0.1-0.8-0.4-1.1c-0.2-0.2-0.4-0.2-0.8-0.2c-1.8,0.2-2.6,0-2.7,0
		l-0.5-0.1l0.1-0.5c0.3-1,0.4-2.5-0.2-2.7c-1.3-0.5-2-0.8-2-0.8c-0.3-0.1-0.4-0.4-0.3-0.7s0.4-0.4,0.7-0.3c0,0,0.7,0.3,2,0.8
		c1.3,0.5,1.1,2.4,0.9,3.4c0.4,0,1,0,1.9-0.1c0.6-0.1,1.1,0.1,1.5,0.4c0.7,0.6,0.8,1.7,0.8,1.8C-53.5-270.9-53.7-270.7-54-270.7
		C-54-270.7-54-270.7-54-270.7z"/>
	<path class="st2" d="M-38.4-278c-0.2,0-0.4,0-0.6-0.1c-0.6-0.3-0.5-1-0.5-1.1l0-3.8l4.6-2.9c0-0.1,0.1-0.3,0.3-0.3l1.1-0.5l0.5,0.9
		l-5.5,3.4v3.3c0,0.1,0,0.2,0,0.2l0,0c0,0,0.4,0.1,1.8-0.8c1.8-1.3,3.1-2,3.5-2c0.3,0,0.5,0.2,0.5,0.5c0,0.3-0.2,0.5-0.5,0.5l0,0
		c0,0-0.6,0.2-3,1.9C-37.1-278.4-37.8-278-38.4-278z"/>
	<path class="st2" d="M-40-267.8c-0.1,0-0.2,0-0.3-0.1c-0.2-0.2-0.2-0.5,0-0.7c0.4-0.5,0.8-1.2,0.7-1.7c0-0.1-0.1-0.3-0.5-0.5
		c-0.9-0.4-3.1,0.7-4.2,1.4c-0.2,0.1-0.5,0.1-0.7-0.2s-0.1-0.5,0.2-0.7c0.3-0.2,3.4-2.1,5.1-1.5c0.7,0.3,1,0.8,1.1,1.1
		c0.3,1.2-0.8,2.4-0.9,2.6C-39.7-267.8-39.8-267.8-40-267.8z"/>
	<path class="st2" d="M-35.6-270.8c-0.2,0-0.4-0.2-0.5-0.4c-0.1-0.1-0.5-0.7-3.1-1.6c-0.3-0.1-0.4-0.4-0.3-0.6s0.4-0.4,0.6-0.3
		c3,1.1,3.7,1.9,3.7,2.4C-35.1-271.1-35.3-270.8-35.6-270.8C-35.6-270.8-35.6-270.8-35.6-270.8z"/>
</g>
<g>
	<g>
		<path class="st2" d="M-583.2-201.1c0,0-13.2-4.4-17.5,8.7h0c-4.4-13.1-17.5-8.7-17.5-8.7s-10.8,2.9-7.6,17
			c0.2,0.7,0.4,1.4,0.6,2.1h17.2l2.3,4.1l2.1-5.4l2.3,11.5l3.7-18.3l1,0.1v11.1l2-2h18.1c0.4-1.1,0.8-2.1,1-3.2
			C-572.3-198.2-583.2-201.1-583.2-201.1z"/>
		<path class="st2" d="M-594.2-179.6l-3.4,3.3l0-7.5l-3.7,17.4l-2.6-12.9l-1.6,3.8l-3.1-5.2h-16.3c5.2,11.7,24.2,25.2,24.2,25.2h0
			c0,0,18-12.8,23.8-24.1H-594.2z"/>
	</g>
	<polygon class="st2" points="-631.2,-180.6 -624.8,-180.6 -625.3,-182.1 -631.2,-182.1 	"/>
	<polygon class="st2" points="-573.2,-179.5 -577,-179.5 -576.5,-181 -573.2,-181 	"/>
</g>
<g>
	<path class="st2" d="M-522.1-171.1c0,0,2.5-3.8,4.3-0.8s1.8,9.1-4.7,11.8c0,0-14,2.8-16.3-12.1c-2.3-14.9,6.3-23.3,6.3-23.3
		s5.4-5,11.5-3.4c6.1,1.5,6.7,8.5,7,9.4c1.2,3.4-2.4,8.1-5.2,2.8c-2.1-7.3-6.6-4.4-6.6-4.4s-1.3,1.3-1.3,3.8c0.1,2.5,0.3,2.5-1.3,3
		c-1.6,0.5-4.6,2.9-2.7,6c3.3,2.5,1.8,4,1.8,4s-1.7,3.3,0.9,5.3c3.8,2.3,6.1-1.6,6.1-1.6"/>
	<path class="st2" d="M-511.7-187.6h3.6v29.6h-3.8v-14.6c0,0-2.3-6.2-6.7-4.6c-4.3,1.6-5.2,4.6-5.2,4.6s-1.5,1.8-2.7,0.8
		s0-2.7,0-2.7c0,0,6.1-3.2,2.8-4c-3.3-0.7-5.9-1.4-5.3-3s2.4-1.3,3-0.9c1.3,1,3.2,1.1,3.2,1.1s0.3,0-0.2-1.5s-1.7-2.7-1.7-2.7
		s-1.1-2.2,0.3-3c1.4-0.8,2.7,0.9,2.7,0.9s-0.3,4.3,2.2,6.1c2.4,1.8,6.5,3,6.5,3h1.3V-187.6z"/>
	<path class="st2" d="M-490.1-171.1c0,0-2.5-3.8-4.3-0.8s-1.8,9.1,4.7,11.8c0,0,14,2.8,16.3-12.1c2.3-14.9-6.3-23.3-6.3-23.3
		s-5.4-5-11.5-3.4s-6.7,8.5-7,9.4c-1.2,3.4,2.4,8.1,5.2,2.8c2.1-7.3,6.6-4.4,6.6-4.4s1.3,1.3,1.3,3.8s-0.3,2.5,1.3,3s4.6,2.9,2.7,6
		c-3.3,2.5-1.8,4-1.8,4s1.7,3.3-0.9,5.3c-3.8,2.3-6.1-1.6-6.1-1.6"/>
	<path class="st2" d="M-500.5-187.6h-3.6v29.6h3.8v-14.6c0,0,2.3-6.2,6.7-4.6c4.3,1.6,5.2,4.6,5.2,4.6s1.5,1.8,2.7,0.8s0-2.7,0-2.7
		c0,0-6.1-3.2-2.8-4c3.3-0.7,5.9-1.4,5.3-3c-0.7-1.6-2.4-1.3-3-0.9c-1.3,1-3.2,1.1-3.2,1.1s-0.3,0,0.2-1.5s1.7-2.7,1.7-2.7
		s1.1-2.2-0.3-3s-2.7,0.9-2.7,0.9s0.3,4.3-2.2,6.1c-2.4,1.8-6.5,3-6.5,3h-1.3V-187.6z"/>
</g>
<g>
	<path class="st12" d="M-409.3-150.4c-1.6,0-3.1,0-4.7,0c-0.7-3-2.6-4.9-5.2-6.6c-4.7-3-5-7.7-0.9-11.3c1.5-1.3,2.2-2.5,2.1-4.5
		c-0.1-4.2,0-8.4,0-12.7c0-2.7-0.9-4.8-4.2-5c-0.8,1.5,0.7,2.6,0.8,4c0.1,3.6-0.6,7.1-4.3,8.5c-3.6,1.3-6.7-0.3-8.8-3.4
		c-1.2-1.8-2-3.7-2.2-5.9c0,0-0.7-4.5,0.1-10.1c0.7-3.8,2-7.1,5.9-8.8c0,0,2.5-1.5,6,0.1c3.4,2.4,4,5.8,2.9,9.5
		c-0.5,1.8-1.2,2.7,1.4,3.3c4.1,0.9,5.7,4,5.6,8c-0.1,3.7,0.1,7.5-0.1,11.2c-0.1,2.6,0.9,3.2,3.4,3.2c2.5,0,3.5-0.6,3.4-3.3
		c-0.2-3.9,0-7.8,0-11.7c0-3.7,1.6-6.4,5.1-7.4c2.2-0.6,2.8-1,1.9-3.5c-1.3-3.6-0.5-7.1,2.9-9.5c2.9-1.6,6-0.1,6-0.1
		c3.8,1.7,5.2,5,5.9,8.7c1.3,6.1,0.2,10.2,0.2,10.2c0,0.3-0.1,0.6-0.2,0.9c-1.8,6.5-5.9,9.8-10.4,8.6c-4.2-1.2-5.6-5.8-3.7-12.6
		c-3.1,0-4.5,1.6-4.5,4.4c-0.1,4.7,0,9.4-0.1,14.1c0,1.8,1.1,2.5,2.1,3.5c4,3.8,3.8,8.3-1,11.4
		C-406.8-155.3-408.6-153.4-409.3-150.4z"/>
</g>
<g>
	<path class="st13" d="M-302.1-184.8c-1.6-6.2-6.3-10.4-11.9-10.6c-5.6-0.3-5.7-0.3-5.2-6.2c0.2-1.9,0.7-3.8,1.1-5.7l-10.2-0.9
		c-2.3,7.6-0.8,15,2,22.1c3.2,8.1-2.1,15.9-11.5,12.8c-5.3-1.7-8.9,0.7-11,6.2c-0.7,3.4,0.1,5.3,0.1,5.3c0.8,4.5,2.7,8.7,4.9,12.7
		c4.1-0.1,8.1-0.1,12.2-0.2c0,0-3.9-6.5-6.6-12.8c5.9,5.3,9.8,6.6,15.3,5.7c11-1.9,18.6-9.8,21-22.2
		C-302.1-178.6-301.4-181.6-302.1-184.8z M-322.9-158.9c-4.1,0.8-7.5,0-10.6-2.6c-1.1-0.9-2.1-1.9-3.3-2.6c-1.3-0.9-2.8-1.7-4.3-0.5
		c-1.5,1.3-0.1,2.6,0.5,3.8c1.4,3.2,3.1,6.2,4.8,9.5c-0.4,0.4-6.2,0.4-6.2,0.4l-2.5-5.1c0,0-1.6-4.2-2.1-6.4
		c-1.3-5.6,2.4-9.4,8.1-8.5c0.8,0.1,1.6,0.4,2.5,0.6c8,1.5,14.5-5,12.8-13.1c-0.8-3.6-1.9-7-3-10.5c-0.9-3.2-0.7-6.4-0.6-9.6
		c0.1-2.7,1.3-2.6,3.4-2.5c2.6,0.1,1.8,1.6,1.8,2.9c0,1.8-0.1,3.7-0.1,5.5c0.2,5.4,0.5,5.6,5.8,4.8c5.9-0.8,11.7,4.5,11.8,11
		C-303.9-171.4-312.6-161-322.9-158.9z"/>
	<path class="st14" d="M-318.2-176c-1.3-0.6-2.8-1.4-3.9,0.8c-2.8,5.7-7.6,7.9-13.8,7.4c-0.9-0.4-1.1,0.1-0.9,0.9
		c1.2,1,1.7,1.3,3.6,2.9c8.1,6.9,22.3,1.3,23.9-9.6C-312.5-173.6-315.3-174.7-318.2-176z M-322.5-164.6c-0.1,0.8-0.6,1.3-1.4,1.2
		c-0.8-0.1-1.3-0.6-1.2-1.4c0.1-0.8,0.6-1.2,2-1.1C-322.8-165.9-322.4-165.4-322.5-164.6z M-318.6-165.4c-0.2-0.2-0.8-0.6-0.9-1
		c-0.2-0.8,0.4-1.3,1.2-1.3c0.7,0,1,0.5,1,1.1C-317.3-166-317.6-165.5-318.6-165.4z"/>
</g>
<g>
	<path class="st14" d="M-234.6-148.6c-2.9,0-6.1-0.7-9.4-2.1l-0.2-0.1c-9.6-5.4-9.6-15.3-8.3-19.8l3.5,1.1
		c-0.1,0.4-2.9,10.2,6.4,15.4c5.1,2.1,9.7,2.3,13.5,0.6c6.4-3,8.8-10.5,8.8-10.6l3.5,1.1c-0.1,0.4-2.9,9.1-10.8,12.8
		C-229.6-149.1-232-148.6-234.6-148.6z"/>
	<path class="st14" d="M-250.9-168.9c-14.6-0.3-17.4-30.3-17.5-31.6l0-0.5l0.2-0.4c0.1-0.2,1.7-3.8,6.6-5.2l1,3.6
		c-2.4,0.7-3.6,2.1-4,2.7c0.8,8.1,4.7,27.5,13.8,27.7L-250.9-168.9z"/>
	<path class="st14" d="M-250.8-168.9l-0.1-3.7c9.1-0.2,12.9-19.2,13.8-27.5c-0.6-0.6-2-1.8-4.4-2.5l1-3.6c4.7,1.3,6.8,4.3,6.9,4.5
		l0.3,0.5l-0.1,0.6C-233.4-199.2-236.2-169.2-250.8-168.9z"/>
	<circle class="st14" cx="-241" cy="-204.3" r="3.9"/>
	<circle class="st14" cx="-259.6" cy="-204.7" r="3.9"/>
	<circle class="st14" cx="-250.8" cy="-169.2" r="3.9"/>
	<circle class="st14" cx="-217.5" cy="-171.4" r="2.6"/>
	<path class="st14" d="M-217.5-162.2c-5.1,0-9.2-4.1-9.2-9.2c0-5.1,4.1-9.2,9.2-9.2c5.1,0,9.2,4.1,9.2,9.2
		C-208.3-166.3-212.4-162.2-217.5-162.2z M-217.5-176.9c-3,0-5.5,2.5-5.5,5.5c0,3,2.5,5.5,5.5,5.5c3,0,5.5-2.5,5.5-5.5
		C-212-174.4-214.4-176.9-217.5-176.9z"/>
</g>
<g>
	<path class="st14" d="M-137.2-136.1c-4,0-5.9-0.6-12-2.4l-0.5-0.1c-6.3-1.9-10.6,1.7-10.7,1.7l-0.2,0.1l-0.2,0.1
		c-0.2,0.1-4.4,1.8-8.8-1.1c-5-3.5-2.9-8-1-11.9c0.7-1.5,1.5-3.1,1.9-4.8c1.7-5.9-0.7-15.2-0.7-15.3c0-0.2-1.4-5-1.5-18.7
		c-0.2-14.1,6.5-20.3,6.8-20.6l1.9,2.1l-0.9-1.1l1,1.1c-0.1,0.1-6,5.7-5.9,18.4c0.2,13.2,1.4,17.9,1.4,18c0.1,0.4,2.6,10.1,0.7,16.8
		c-0.5,1.9-1.4,3.7-2.1,5.2c-2,4.3-2.8,6.4,0,8.4c2.7,1.8,5.3,1.1,6,0.9c1.1-0.8,6.1-4.2,13.1-2.1l0.5,0.1c6.7,2,7.9,2.4,12.6,2.3
		c3.2-0.1,5.6-0.7,6.5-1.1c-0.2-0.2-0.5-0.4-1.1-0.7c-1.9-1-4.5-1.7-7-2.4c-4.5-1.2-9.1-2.5-11.5-5.7c-0.6-0.8-1.2-1.5-1.8-2.2
		c-2.9-3.2-4.6-5.6-3.6-15c0.7-6.5,2.6-11.9,4.1-16.2c1.2-3.4,2.2-6.3,2.2-8.5c0-5.6,0.2-6.5,2.4-12.3c0.4-1,0.8-2.1,1.3-3.1
		c1.9-4.5,3.9-9.2,3.3-14.8l2.8-0.3c0.6,6.4-1.6,11.6-3.6,16.2c-0.4,1-0.9,2-1.2,3c-2.1,5.5-2.2,6-2.2,11.3c0,2.7-1.1,5.8-2.4,9.4
		c-1.5,4.2-3.3,9.4-4,15.5c-0.9,8.6,0.6,10.3,2.9,12.8c0.6,0.7,1.3,1.4,2,2.4c1.8,2.4,5.9,3.5,9.9,4.6c2.6,0.7,5.4,1.5,7.6,2.6
		c0.8,0.4,3.3,1.7,2.8,3.8c-0.6,2.8-6.8,3.3-9.4,3.4C-136.2-136.1-136.7-136.1-137.2-136.1z"/>
	<path class="st14" d="M-163.1-142.3c-0.1,0-0.2,0-0.3-0.1c-0.2-0.1-0.2-0.4-0.1-0.6c0,0,2-2.6,5.1-6.7c7.5-10.2,0.9-22.7-2.7-29.4
		c-4.3-8.2-3.1-13.8,4.6-20.8c6.9-6.3,8.7-14.7,8.7-14.8c0-0.2,0.3-0.4,0.5-0.3c0.2,0,0.4,0.3,0.3,0.5c0,0.1-1.9,8.7-9,15.2
		c-7.4,6.8-8.6,11.9-4.4,19.8c3.6,6.9,10.4,19.6,2.6,30.3c-3.1,4.2-5,6.7-5.1,6.8C-162.8-142.3-163-142.3-163.1-142.3z"/>
	<path class="st14" d="M-165.3-145.3c-0.3,0-0.6-0.1-0.8-0.3c-0.4-0.4-0.3-1,0.1-1.4c0.1-0.1,9.5-8.3,8.5-17.9
		c-0.9-9.6-0.4-11.5,0.9-16.2l0.4-1.4c1.5-5.6,2.4-10.5,0-19.2c-2.6-8.1,4.4-11.3,4.5-11.3c0.5-0.2,1.1,0,1.3,0.5s0,1.1-0.5,1.3
		c-0.2,0.1-5.4,2.5-3.4,8.9c2.6,9.2,1.6,14.4,0,20.3l-0.4,1.4c-1.2,4.6-1.7,6.3-0.8,15.5c1,10.6-8.8,19.2-9.2,19.6
		C-164.8-145.4-165.1-145.3-165.3-145.3z"/>
	<path class="st14" d="M-140.4-142.3c-0.1,0-0.2,0-0.2-0.1c-0.1,0-0.5-0.1-0.8-0.2c-1.8-0.4-5.9-1.5-10.6-4
		c-6.2-3.3-9.1-12.8-9.2-13.3c-0.1-0.2,0.1-0.5,0.3-0.5c0.2-0.1,0.5,0.1,0.5,0.3c0,0.1,2.9,9.6,8.8,12.7c4.7,2.5,8.7,3.5,10.4,3.9
		c0.7,0.2,1,0.2,1.1,0.3c0.2,0.1,0.2,0.4,0.1,0.6C-140.1-142.3-140.3-142.3-140.4-142.3z"/>
	<path class="st14" d="M-147.3-140.5C-147.3-140.5-147.3-140.5-147.3-140.5c-7.4-1.5-13.7-12.3-14-12.7c-0.1-0.2,0-0.5,0.2-0.6
		c0.2-0.1,0.5-0.1,0.6,0.2c0.1,0.1,6.4,10.9,13.3,12.3c0.2,0,0.4,0.3,0.3,0.5C-146.9-140.7-147.1-140.5-147.3-140.5z"/>
	<path class="st14" d="M-161.9-183.9C-161.9-183.9-162-183.9-161.9-183.9l-4.3-0.9c-0.2,0-0.4-0.3-0.3-0.5c0-0.2,0.3-0.4,0.5-0.3
		l4.3,0.9c0.2,0,0.4,0.3,0.3,0.5C-161.5-184-161.7-183.9-161.9-183.9z"/>
	<path class="st14" d="M-154.7-199.6h-6.2c-0.2,0-0.4-0.2-0.4-0.4s0.2-0.4,0.4-0.4h6.2c0.2,0,0.4,0.2,0.4,0.4
		S-154.5-199.6-154.7-199.6z"/>
	<path class="st14" d="M-151.4-148.2c-2.5-0.8-4.8-1.9-4.9-1.9l0.4-0.9c0,0,2.3,1.1,4.7,1.8L-151.4-148.2z"/>
	<path class="st14" d="M-139.6-140.4c-1.7-0.3-5.5-1.7-5.7-1.8l0.4-0.9c0,0,3.8,1.5,5.4,1.7L-139.6-140.4z"/>
</g>
<g>
	<path class="st12" d="M-65.3-187.7c4.9-5,4.8-10.7-0.1-15.7c-1.8-1.9-4.1-2.7-6.5-3.5c-2-0.6-4.4-0.5-4.4-0.5
		c-5.6-0.1-11.3,4.1-13.1,7.1c-6,9.4-1.5,23.5-0.1,26.6c3.3,7.6,11,11.7,17.6,9.6c6-2,8.6-8,5.5-12.4
		C-70.5-182.4-70.5-182.4-65.3-187.7z"/>
	<path class="st12" d="M-18.7-200.3c-1.8-3-7.5-7.1-13.1-7.1c0,0-2.5-0.1-4.4,0.5c-2.4,0.8-4.6,1.6-6.5,3.5
		c-4.8,5-4.9,10.8-0.1,15.7c5.2,5.3,5.2,5.3,1.1,11.1c-3.1,4.5-0.5,10.5,5.5,12.4c6.5,2.1,14.2-2,17.6-9.6
		C-17.2-176.9-12.6-190.9-18.7-200.3z"/>
	<path class="st1" d="M-42.5-182.2c0,0-2.1-2.1-7.6,5.9c-1.6,2.3-2.7,3.4-3.8,3.4c-1.1,0-2.2-1.1-3.8-3.4c-5.5-8-7.6-5.9-7.6-5.9
		c-1.1,1.5,0,2.1,0.7,2.7c7.5,6.7,9.3,15.4,8.8,25l-0.1,4.7c0.5,0,3.7,0,4.2,0l-0.1-4.7c-0.5-9.5,1.3-18.2,8.8-25
		C-42.6-180.1-41.4-180.7-42.5-182.2z"/>
</g>
<path class="st12" d="M-664.3-90.5c-1.1-3.7-4.9-5.2-8.5-4.4c-6.8,1.5-13.3,1.1-19.7-1.3c0,0-3-1-5.3-1c-2.2,0-5.3,1-5.3,1
	c-6.4,2.4-12.9,2.9-19.7,1.3c-3.5-0.8-7.4,0.7-8.5,4.4c0,0-1.4,3.8-0.2,7.8c2,6.4,11.3,8.5,12.7,3.7c0.4-3.7,0.1-6.8-4.9-6.2
	c-1,0.1-2.1,0.2-2.2-1.2c-0.1-1.6,0.7-2.5,2.1-2.9c3-0.9,6.6,1.8,6.7,5c0,1.5,0,3,0,4.4h0l0,0c0.9,3.6,2.5,7,5.3,9.5
	c6.2,5.5,7.2,12.2,6.3,20c-0.4,3.8-2.6,7.6-0.6,11.5c2,0,3.9-0.1,5.9-0.1c0.3-16.6,6-34.4-10.4-47.6c4.1,0.7,8.1,1.1,12.1,1.1
	c0,0,0,0,0,0c0.2,0,0.3,0,0.5,0c0.2,0,0.3,0,0.5,0c0,0,0,0,0,0c4,0,8-0.4,12.1-1.1c-16.4,13.3-10.8,31-10.4,47.6c2,0,4,0.1,5.9,0.1
	c2.1-3.9-0.1-7.8-0.6-11.5c-0.9-7.8,0.1-14.5,6.3-20c2.8-2.5,4.4-5.8,5.3-9.5l0,0h0c0-1.5-0.1-3,0-4.4c0.1-3.2,3.7-5.9,6.7-5
	c1.4,0.4,2.3,1.4,2.1,2.9c-0.1,1.4-1.2,1.4-2.2,1.2c-5-0.6-5.4,2.5-4.9,6.2c1.5,4.8,10.7,2.7,12.7-3.7
	C-662.9-86.7-664.3-90.5-664.3-90.5z"/>
<g>
	<path class="st14" d="M-578.2-66.7c-0.7,1.1-2,0.7-2.8-0.1c-7.5-8.1-30.5-22.7-29.7-24.8c0.8-2.2,4.2-2.5,6.6-2.7
		c9.4-0.6,19.3,6.8,23.4,16.4C-578.5-72.7-578.2-66.7-578.2-66.7z"/>
	<path class="st15" d="M-603.3-101.4c5.5,0,14.1,4.2,15.5,10c-10.8-8.1-21.3-7.4-32.4,0.7C-618.3-98.2-606.7-101.4-603.3-101.4z"/>
	<path class="st15" d="M-612.3-89.7l-6.7,8.6c-3.7,5.7-6.7,15.4-6.7,15.4l-0.6-4.4C-626.3-70.2-626.3-83.4-612.3-89.7z"/>
	<path class="st16" d="M-604-80.9c-5.5-0.4-12.4,5.8-16.6,10.6c-0.1,0.2,6.7-12.9,9.6-15C-608.7-87-606.2-82.8-604-80.9z"/>
	<path class="st12" d="M-621.8-64.7c-0.4,1-0.3,2.3-0.3,3.4c0.4,11.8,8.7,25.8,20,26.6c11.6-1.4,17.5-12.9,19.1-22.1
		c0.8-3.1,1.6-6.7,0-9.2C-598.2-81.4-607.1-83.7-621.8-64.7z M-617-63.6c0-4,2.8-5.5,6.3-5.5c3.5,0,6.2,1.5,6.4,5.4
		c0.2,3.3-3,6.3-6.9,6.3C-614.5-57.8-617-59.7-617-63.6z M-602.7-39.9c-2.3-0.1-4.8-0.9-4.8-3.4c0-3.1,2.3-4.1,5.1-3.3
		c3.1-0.8,5.1,0.6,5,3.2C-597.6-40.6-600.2-39.9-602.7-39.9z M-594.3-57.4c-3.4-0.1-6.4-3.1-6.4-6.4c0.1-3.2,2.8-5.5,7-5.4
		c3,0.3,5.7,1.5,5.7,5.6C-587.9-60.1-590.8-57.3-594.3-57.4z"/>
	<path class="st12" d="M-609.5-62c-0.5,0.3-1,0.7-1.5,0.7c-1,0-2.7-0.4-2.1-1.6c0.5-1,1.7,0.1,2.6-0.1
		C-610.1-62.6-609.6-62.5-609.5-62z"/>
	<path class="st12" d="M-610.7-61.3c-0.4-0.3-0.8-0.7-1.1-1c0.8-0.3,1.7-1.6,2.4-0.5C-608.9-62-609.9-61.4-610.7-61.3z"/>
	<path class="st12" d="M-592.3-61.9c-0.5,0.3-1,0.7-1.5,0.7c-1,0-2.7-0.4-2.1-1.6c0.5-1,1.7,0.1,2.6-0.1
		C-592.9-62.6-592.4-62.5-592.3-61.9z"/>
	<path class="st12" d="M-593.5-61.2c-0.4-0.3-0.8-0.7-1.1-1c0.8-0.3,1.7-1.6,2.4-0.5C-591.7-62-592.7-61.4-593.5-61.2z"/>
</g>
<g>
	<g>
		<path class="st5" d="M-487.3-44.1c-1.9-5.3-6.3-7.6-13.3-7l-29.4,0.2c-2.4,0-5.5,0.8-5.5-3.2c0-3.4,2.7-3.2,5-3.4
			c10.6-1,21.2-1.7,31.7-3c5.7-0.7,9.8,0.5,12,6.1c1.6,4.1,4.1,6.6,8.8,4.5c2.1-0.9,4.8,0,5.2,1.4c0.4,1.4,0,1.3,0,2
			c-0.6,1-3.6,2.4-6,2.9c-1.4,0.3-5,0.8-6.9,1.1C-487-42.4-487.2-43.8-487.3-44.1z"/>
		<path class="st17" d="M-539.7-48.5c14.3,0,28.6,0,42.9-0.1c2.7,0,5.5,0.7,5.7,4c-15.3,0-48.6,0-48.6,0S-539.7-47.5-539.7-48.5z"/>
		<path class="st14" d="M-505.4-69.8l-2.1,7.1l-9.8,1.1c0,0,1.9-8.6,2.8-12.9c0.5-2.5,1.1-5.1,4.1-5.7c3-0.6,5.8,0.3,7.6,2.8
			c2.9,4,2.3,8.1,11.2,8.6c1.4,0.1,2.5,1.6,2,3.4c-0.5,1.7-1.8,2.4-3.5,2.1C-497.4-64.1-503.1-64.7-505.4-69.8z"/>
	</g>
	<circle class="st1" cx="-503.8" cy="-87.3" r="6.1"/>
	<circle class="st1" cx="-479.5" cy="-60.4" r="6.1"/>
</g>
<g>
	<path class="st14" d="M-417.6-57.7c-4.9-0.9-9.5-0.3-14.5,0.1c-1.1,0.1-2.3-0.4-2.9,0.2c0.1,1,0,2,1.1,2.6
		c-0.6,7.3-0.3,7.7,7.1,7.9c5.1,0.1,7.6,3.1,8.2,10.1c1.7,0,3.3,0,5,0C-413.5-43.9-410.5-51.8-417.6-57.7z"/>
	<g>
		<path class="st12" d="M-432-57.6c-0.8,0-1.4,0.1-1.8,0.3c1.8,0.3,3.6,0,5.3-0.3C-429.7-57.6-430.9-57.6-432-57.6z"/>
		<path class="st12" d="M-405.6-99.2c-3.2-0.3-5-0.1-7.3,0c-8.7-0.1-17.9,8.3-18.3,16.1c-0.6,12.3-5.4,10.9-7.5,16.1
			c-1.2,2,2.1,2.6,2.1,2.6c2.4,1.7-0.8,3.8,1.3,5.5c0-0.4,0,0.4,0,0c3.4,1.1,6.6-1,9.9-0.7l0,0v0c1.8-0.4,3.6-0.7,5.3-1.2
			c1.6-0.4,4.2-0.1,3.7-2.9c-0.4-2.3-2.6-2.4-4.4-2.3c-3.3,0.3-6.6,0.8-9.9,1.1c-1.1,0.1-2.6,0.6-3.3-0.4c-1-1.5,0.7-2.3,1.3-3.4
			c2.3-3.6,5.4-6.3,9.9-6.9c2.9-0.4,5.5-0.6,6.7,3.2c1,3.1,4.1,2.7,6.8,2.7c4,0,6.6-1.9,8.3-5.3c1.1-2.2,1.1-5.8,5.1-4.2
			c3.5,1.3,4.3,4,3.9,7.6c-0.6,4.4-3.2,7.1-6.6,9.4c-0.7,0.5-1.5,1-2.2,0.3c-0.4-0.4-0.5-1.2-0.3-1.8c0.2-1.3,2.3-3,0.2-3.8
			c-2.5-1-5.3-0.6-7.7,0.8c-2.2,1.2-2.3,3.1-1.7,5.2c1.9,6.9,4.1,13.7,5.5,20.7c0.3,1.3,0.8,3,0.8,3c3.1-0.1,8.8-1.6,8.1-1.6
			c-0.2-3.6-0.1-10.5,4.1-14.3c4.9-4.5,7.4-11.3,7.8-17.6c0-2.7-0.4-6.4-0.4-9.1C-385.1-91-396.8-99.2-405.6-99.2z"/>
	</g>
</g>
<g>
	<path class="st12" d="M-335.3-97.2c0,0-2.2-6.8,1.4-6.8c3.6,0,11.5,0,11.5,0s1.6,0.4,2.5,5.2c0.8,4.8,0.9,10.2,6.1,15.7
		c5.1,5.5,7,15.7-0.4,18.3c-6.4,1.9-7.4-7.2-7.4-7.2s-0.2-3.4-2.9-3.4s-3.5,3.5-3.5,3.5s-1.6,9.8-7.9,6.7
		c-6.3-3.2-4.3-10.8-4.3-10.8s0.3-4,6.5-8.8c6.2-4.7,3.3-14.9,3.3-14.9l-0.7,0.9c0,0,0,6.1-0.6,7.1c-0.6,1-1.7,1.5-2.1,1.3
		c-0.3-0.2-0.3-3.5-0.4-4.5S-335.3-97.2-335.3-97.2z"/>
	<path class="st12" d="M-318.8-42.8v8.7c0,0,1.1,2-3.1,2c-4.2,0-6.5-0.5-6.5-0.5s-2.9,0.4-2.9-2.9c0-3.3,0-10.5,0-10.5
		s-6.5-6.5-6.7-12.1c-0.2-5.6,3.5-4,3.5-4s3.6,0.4,5.5-1.6c1.9-2.1,3.9-2.1,3.9-2.1s2.7-0.7,5.1,3c3.3,1.9,6.9,0.9,6.9,0.9
		s2.4,0,1.2,3.7s-1.1,4.6-4.5,8.3s-4.3,3.8-5.3,7.7s-0.1,5.6-0.1,5.6s1.3-0.5,1.3-0.7s0.3-4.5,0.9-5.1S-318.8-42.8-318.8-42.8z"/>
	<path class="st12" d="M-339.7-32.5c0,0,3.3,0.5,3.6,0.5c0.3,0,0.6-1.4,0.6-1.4s-0.1-9,0-9.3c0.1-0.3,0.6-1.6,0.9-2.5
		c0.3-0.8-3.5-4.7-3.3-5c0.2-0.3,0.6-1.3,0-1.4c-0.6-0.1-3.6-1.6-3.6,0.9s1.3,7.3,1.6,7.5c0.3,0.2,0.4,7.5,0.4,7.5L-339.7-32.5z"/>
</g>
<g>
	<path class="st12" d="M-251.1-53.5c0,0-3.9-0.9-1.8-5c2.1-4,13.4-27.3,13.4-27.3s2.3-3.6,5.5-2.2L-251.1-53.5z"/>
	<path class="st12" d="M-254.6-42.6l7.5-14.3l2.6,1.2C-244.6-55.7-250.1-40.8-254.6-42.6z"/>
	<path class="st12" d="M-243.3-57.1l7.8-14.8c1.4-2.2,1.2-2.7,3-2.3c4.7,2.9-0.4,6.1-6.1,10.3s-0.7,5.3-0.7,5.3s5.2,1.9,19.1-9.8
		c6.3-5.3,9-8.6,9.5-13.5c0.5-4.8,6.4-4.7,6.2-5.8c-1.8-6.8-6.4-9.3-6.4-9.3l-1.9,0.7c0,0-2.4,2.3-7.7,4.2c-5.3,1.8-7,3.3-7,3.3
		l1.8-4.7l-2.8-1.2L-246.3-59L-243.3-57.1z"/>
	<rect x="-272.2" y="-41.1" class="st12" width="20.7" height="2.1"/>
	<rect x="-249.6" y="-41.1" class="st12" width="3.3" height="2.1"/>
	<rect x="-244.8" y="-41.1" class="st12" width="3.3" height="2.1"/>
	<rect x="-239.9" y="-41.1" class="st12" width="3.3" height="2.1"/>
	<rect x="-235.1" y="-41.1" class="st12" width="3.3" height="2.1"/>
	<rect x="-230.2" y="-41.1" class="st12" width="3.3" height="2.1"/>
	<rect x="-225.4" y="-41.1" class="st12" width="3.3" height="2.1"/>
</g>
<g>
	<polygon class="st12" points="-143.3,-83.3 -146.9,-86.9 -142.5,-91.1 -146.7,-95.2 -142.5,-99.3 -120,-76.8 -124.3,-72.5 
		-128.2,-76.4 -132.2,-72.3 -135.7,-75.8 -131.5,-80 -139,-87.5 	"/>
	<path class="st12" d="M-158.9-93.2l-4.4,4.1l6.5,7.2l-18.3,18.6l3.6,12.8l-7.2,7.2v6.5l11-9.8l12.6,2.4l18-17.3l6.4,5.7l4.1-4.7
		L-158.9-93.2z M-149.5-67.2l-5.1-5.1L-158-69l5,5l-3.3,3.3l-5-5l-3.6,3.6l4.9,4.9l-3.2,3.2l-7.6-8.3l16.4-16.4l8.1,8.1L-149.5-67.2
		z"/>
</g>
<g>
	<path class="st18" d="M-40.9-58.7c1.2,1.8,1.4,4.1-0.3,5.3c-0.9,0.7-2.4,0.6-3.3,0c-1.6-1.1-1.7-3-1.1-4.6c2.7-5.1,2-26.9,4.6-34.9
		C-41.6-77-41.1-60.8-40.9-58.7z"/>
	<path class="st18" d="M-59-56.9c1.6,2.3,1.8,5.2-0.3,6.7c-1.2,0.9-3,0.8-4.2,0c-2-1.4-2.1-3.8-1.3-5.8c3.4-6.4,3.8-34.1,7.1-44.4
		C-58.8-80.1-59.3-59.5-59-56.9z"/>
	<path class="st12" d="M-23-47.3c0.1-2-0.1-9.8-1.2-10.5c-2.3-1.4-4.4-4.1-7.3-0.9c-2.3,2-5.1,0.5-6.1,6.1c-0.3,1.9-3.5,2.9-5.7,2.6
		c-2.5-0.4-4.2-2-4.9-4.4c-0.4-1.5-0.4-3.2-0.6-5.6c-2,2.8-6.3,1.7-6.2,6.3c0.1,5.7-3.6,9.4-7.9,8.7c-4.4-0.6-7-5.4-6-10.8
		c0.2-1.2,1.5-3.1-0.6-3.3c-2.5,0.4-4.9,3.8-7.7-0.2c-2.4-3.5-4.2,3.2-7.8,4c0,4.8,0,9.6,0,14.4c0.3,3,2.6,3.4,4.9,3.9
		c16.5,2.1,41.7,1.4,52.1,0c2.3-0.5,4.6-0.8,4.9-3.8C-23-43-23.2-45.2-23-47.3z M-80-43.7c-1.2,0-2.1-1-2.1-2.1c0-1.2,1-2.1,2.1-2.1
		c1.2,0,2.1,1,2.1,2.1C-77.8-44.7-78.8-43.7-80-43.7z M-76.1-50.8c0-1.1,0.9-2,2-2s2,0.9,2,2c0,1.1-0.9,2-2,2S-76.1-49.7-76.1-50.8z
		 M-70.6-40.5c-1.2,0-2.1-1-2.1-2.1s1-2.1,2.1-2.1c1.2,0,2.1,1,2.1,2.1S-69.5-40.5-70.6-40.5z M-53.4-50.3c0-1,0.8-1.9,1.9-1.9
		s1.9,0.8,1.9,1.9s-0.8,1.9-1.9,1.9S-53.4-49.2-53.4-50.3z M-48.3-39.9c-1.3,0-2.3-1-2.3-2.3c0-1.3,1-2.3,2.3-2.3s2.3,1,2.3,2.3
		C-46-40.9-47-39.9-48.3-39.9z M-37.5-45.9c-1,0-1.9-0.8-1.9-1.9c0-1,0.8-1.9,1.9-1.9s1.9,0.8,1.9,1.9
		C-35.6-46.7-36.5-45.9-37.5-45.9z M-29.6-41.5c-1.3,0-2.3-1-2.3-2.3c0-1.3,1-2.3,2.3-2.3s2.3,1,2.3,2.3
		C-27.3-42.5-28.4-41.5-29.6-41.5z M-27.8-49.2c-1,0-1.9-0.8-1.9-1.9c0-1,0.8-1.9,1.9-1.9s1.9,0.8,1.9,1.9
		C-25.9-50-26.7-49.2-27.8-49.2z"/>
	<path class="st12" d="M-85.6-57.9c0,0-0.5-6.1,3.4-6.4c3.8-0.4,12.3-0.1,13.3,0c3,0.1,1.6,4.3,1.6,4.3s-1.5-1.9-3.4-0.2
		c-3.6,3.9-5.5,0.7-5.5,0.7s-1.6-3.4-4.2-1.2c0.1-0.1-2.6,3.4-3.9,3.7c-1.3,0.3-1.2-0.6-1.2-0.6"/>
	<path class="st12" d="M-22.4-60.3c0,0-0.2-3.6-3.3-4c-3.2-0.4-10.2-0.1-11,0c-2.5,0.1-1.3,4.3-1.3,4.3s0.1,0.2,0.2,0.4
		c1.8,4.2,5.3,0.3,5.3,0.3s2.4-3.4,5.7-1.4c-0.1-0.1,2,2,3.1,2.7c1,0.6,1.3-2,1.3-2"/>
	<path class="st12" d="M-56.3-56.6c-0.1-0.4-1.4-7.2,1.8-7.7c2.8-0.5,5.3,0,5.3,0s0.9,2.3-0.6,3.6c0,0-1.6,1.9-4.4,2.1
		C-55.7-58.2-56.3-56.2-56.3-56.6z"/>
</g>
<g>
	<path class="st12" d="M-709.1,79.5c0,0-5.1,1.4-6.9-5.6s-8.6-9.6-8.6-9.6s-8.9-9.8-4.5-19.3c0,0,0.9-4.3,1.1-9.1s8.3-5.5,8.3-5.5
		s2.2-6.9,11.5-6.9c0,0,3.9-3.1,10.3-0.8c0,0,6.9-3.5,15.1,3.9c0,0,8.5-0.6,11.1,8.4c0,0,10.9,4.8,4.4,17.6
		c-5.1,9.3-14.1,4.5-14.1,4.5s-6.4,3.9-11.6-0.1c0,0-7.8-0.6-7.9,8s0.8,14.6-5.4,14.6C-707.9,79.6-709.1,79.5-709.1,79.5z"/>
	<path class="st19" d="M-708.8,80c-0.3,0-0.5-0.2-0.5-0.5l-0.3-17.7c0-0.1-0.8-3.7-5.2-5.8c-2.5-1.2-3.2-3.5-3.3-5.2
		c-0.2-2.7,0.7-5.5,1.8-6.3c1.5-1.1,7.1-4.8,7.4-4.9l0.1-0.1l0.1,0c3.2-0.3,4.4-0.2,5-0.1c0.6-0.5,2.3-2.6,3.8-4.4l0.2-0.3l0.3,0.1
		c1.9,0.6,7.2,2,8.8,1.3c2-0.9,3-2.3,3-2.3c0.2-0.2,0.5-0.3,0.7-0.1c0.2,0.2,0.3,0.5,0.1,0.7c0,0.1-1.1,1.6-3.4,2.7
		c-2.1,1-7.7-0.6-9.2-1.1c-3.7,4.7-4.1,4.6-4.4,4.6l-0.3,0l-0.1-0.1c-0.6-0.1-2.6,0-4.4,0.1c-0.8,0.5-5.8,3.9-7.2,4.8
		c-0.6,0.4-1.6,2.8-1.4,5.4c0.1,1.5,0.7,3.4,2.8,4.4c4.9,2.3,5.7,6.4,5.8,6.6l0.3,17.8C-708.3,79.7-708.6,80-708.8,80
		C-708.8,80-708.8,80-708.8,80z"/>
	<path class="st19" d="M-679.7,49.7c-0.2,0-0.5-0.2-0.5-0.4c0,0-0.5-3-2.5-4.4c-0.7-0.5-1.7-0.7-2.7-0.9c-1.1-0.2-2.3-0.5-3.4-1.2
		c-2.3-1.5-2.3-5.9-2.3-6.1c0-0.3,0.2-0.5,0.5-0.5h0c0.3,0,0.5,0.2,0.5,0.5c0,1.1,0.3,4.3,1.9,5.2c1,0.6,2.1,0.9,3.1,1.1
		c1,0.2,2.1,0.5,3,1.1c2.4,1.7,2.9,4.9,3,5.1C-679.1,49.4-679.3,49.7-679.7,49.7C-679.6,49.7-679.6,49.7-679.7,49.7z"/>
	<path class="st19" d="M-683.8,44.3c-0.1,0-0.2,0-0.3-0.1c-0.2-0.2-0.2-0.5,0-0.7c0,0,3.9-4.2,3.3-8c0-0.3,0.1-0.5,0.4-0.6
		c0.3,0,0.5,0.1,0.6,0.4c0.7,4.3-3.4,8.7-3.6,8.9C-683.5,44.3-683.6,44.3-683.8,44.3z"/>
	<path class="st19" d="M-699.8,35.9c0,0-0.1,0-0.1,0c-0.3-0.1-0.4-0.3-0.4-0.6c0,0,0.6-2.8,0.5-4.1c0-0.3,0.2-0.5,0.5-0.5
		c0.3,0,0.5,0.2,0.5,0.5c0.1,1.5-0.5,4.3-0.5,4.4C-699.3,35.7-699.5,35.9-699.8,35.9z"/>
	<path class="st19" d="M-708.8,41.1C-708.8,41.1-708.8,41.1-708.8,41.1c-0.3,0-0.5-0.3-0.5-0.5c0,0,0.2-4.4-1.7-6.1
		c-0.2-0.2-0.2-0.5,0-0.7c0.2-0.2,0.5-0.2,0.7,0c2.2,2.1,2,6.7,2,6.9C-708.3,40.9-708.5,41.1-708.8,41.1z"/>
	<path class="st19" d="M-716.9,46.5C-716.9,46.5-717,46.5-716.9,46.5c-0.3,0-4.6-0.8-6.3-3.3c-0.2-0.2-0.1-0.5,0.1-0.7
		c0.2-0.2,0.5-0.1,0.7,0.1c1.4,2.1,5.5,2.8,5.5,2.8c0.3,0,0.5,0.3,0.4,0.6C-716.5,46.3-716.7,46.5-716.9,46.5z"/>
	<path class="st19" d="M-720.8,60.3c-0.1,0-0.2,0-0.2-0.1c-0.2-0.1-0.3-0.4-0.2-0.7c1.1-2.2,5.2-4.9,5.4-5c0.2-0.2,0.5-0.1,0.7,0.1
		c0.2,0.2,0.1,0.5-0.1,0.7c0,0-4,2.7-5.1,4.6C-720.5,60.2-720.7,60.3-720.8,60.3z"/>
	<path class="st19" d="M-698.4,47.4c-8.8,0-10.8-7.6-10.8-7.7c-0.1-0.3,0.1-0.5,0.4-0.6c0.3-0.1,0.5,0.1,0.6,0.4
		c0.1,0.3,1.9,7.3,10.5,6.9c0.3,0,0.5,0.2,0.5,0.5c0,0.3-0.2,0.5-0.5,0.5C-698,47.4-698.2,47.4-698.4,47.4z"/>
	<path class="st19" d="M-706.7,52.2c-0.3,0-0.5-0.2-0.5-0.5c-0.1-2.7,2.1-6.6,2.2-6.8c0.1-0.2,0.4-0.3,0.7-0.2
		c0.2,0.1,0.3,0.4,0.2,0.7c0,0-2.1,3.9-2,6.3C-706.2,52-706.5,52.2-706.7,52.2C-706.7,52.2-706.7,52.2-706.7,52.2z"/>
</g>
<g>
	<rect x="-613" y="19.9" class="st12" width="21.5" height="62"/>
	<rect x="-633.2" y="40.1" class="st12" width="62" height="21.5"/>
</g>
<g>
	<path class="st12" d="M-500.8,29.5c-2,0-3.4,0-4.4,0c0,0-0.1,0-0.6,0c-0.2,0-0.4,0-0.8,0c-0.2,0-0.4,0-0.6,0c-1,0-2.4,0-4.4,0
		c-9,0-10.8,10.6-10.8,10.6v19.3c0,0,3.6,4.6,7,0c0-3.1,0-17.3,0-17.3h0.7v47.5c0,0,4.2,5.3,7.9,0c0-5.2,0-25.2,0-25.2h0.2h0.8h0.2
		v25.2c0,0,3.8,5.8,7.9,0c0-3.1,0-47.5,0-47.5h0.7v17.3c0,0,3.7,4.8,7,0c0-2.9,0-19.3,0-19.3S-491.8,29.5-500.8,29.5z M-511.5,53.4
		c-1,0-1.8-0.8-1.8-1.8c0-1,0.8-1.8,1.8-1.8c1,0,1.8,0.8,1.8,1.8C-509.6,52.6-510.5,53.4-511.5,53.4z M-506.1,62.7
		c-1,0-1.8-0.8-1.8-1.8c0-1,0.8-1.8,1.8-1.8s1.8,0.8,1.8,1.8C-504.3,61.9-505.1,62.7-506.1,62.7z M-506.1,53.4c-1,0-1.8-0.8-1.8-1.8
		c0-1,0.8-1.8,1.8-1.8s1.8,0.8,1.8,1.8C-504.3,52.6-505.1,53.4-506.1,53.4z M-506.1,41.5c-1,0-1.8-0.8-1.8-1.8s0.8-1.8,1.8-1.8
		s1.8,0.8,1.8,1.8S-505.1,41.5-506.1,41.5z M-506.1,34.6c-1,0-1.8-0.8-1.8-1.8c0-1,0.8-1.8,1.8-1.8s1.8,0.8,1.8,1.8
		C-504.3,33.8-505.1,34.6-506.1,34.6z M-500.7,53.4c-1,0-1.8-0.8-1.8-1.8c0-1,0.8-1.8,1.8-1.8s1.8,0.8,1.8,1.8
		C-498.9,52.6-499.7,53.4-500.7,53.4z"/>
	<path class="st12" d="M-506.1,9.5c-5.1,0-9.2,4.1-9.2,9.2s4.1,9.2,9.2,9.2c5.1,0,9.2-4.1,9.2-9.2S-501.1,9.5-506.1,9.5z
		 M-506.1,23.1c-1.7,0-3-1.3-3-3c0-1.7,1.3-3,3-3s3,1.3,3,3C-503.1,21.8-504.5,23.1-506.1,23.1z"/>
</g>
<g>
	<g>
		<path class="st12" d="M-423.5,21c0,0-1.5-4.5-2.2-5.9c3.6,0,13.5,0,13.5,0s1.6,0.4,2.5,5.2c0.8,4.8,0.9,10.2,6.1,15.7
			c5.1,5.5,7,15.7-0.4,18.3c-6.4,1.9-7.4-2.7-7.4-2.7s-0.3-2.3-3-2.3s-3.4,2.4-3.4,2.4s-1.6,5.4-7.9,2.2S-430,43-430,43
			s0.3-4,6.5-8.8c6.2-4.7,3.3-14.9,3.3-14.9l-0.7,0.9c0,0,0,6.1-0.6,7.1s-1.7,1.5-2.1,1.3c-0.3-0.2,1.2-2.9,1.1-3.8
			C-422.6,22.5-423.5,21-423.5,21z"/>
		<path class="st12" d="M-408.6,75.9v8.7c0,0,1.1,2-3.1,2s-6.5-0.5-6.5-0.5s-2.9,0.4-2.9-2.9s0-10.5,0-10.5s-6.5-6.5-6.7-12.1
			c-0.2-5.6,3.5-4,3.5-4s3.6,0.4,5.5-1.6c1.9-2.1,3.9-2.1,3.9-2.1s2.7-0.7,5.1,3c3.3,1.9,6.9,0.9,6.9,0.9s2.4,0,1.2,3.7
			s-1.1,4.6-4.5,8.3c-3.4,3.7-4.3,3.8-5.3,7.7c-1,3.9-0.1,5.6-0.1,5.6s0.4-0.9,0.3-1c0.4-1.6,1.3-4.1,1.9-4.7
			C-408.6,75.9-408.6,75.9-408.6,75.9z"/>
		<path class="st12" d="M-429.5,86.2c0,0,3.3,0.5,3.6,0.5s0.6-1.4,0.6-1.4s-0.1-9,0-9.3c0.1-0.3,1.5-1.2,1.8-2
			c0.3-0.8-6.9-12.1-7.8-7.9c-0.6,2.5,1.3,9.2,1.6,9.4c0.3,0.2,0.4,7.5,0.4,7.5L-429.5,86.2z"/>
	</g>
	<path class="st12" d="M-404.5,67.1c-0.7,0-1.3,0-2.1-0.1l0.2-2c4.1,0.4,7.5-0.5,10-2.8c2.3-2.1,3.6-5.2,3.6-8.5
		c0-6.2-5-11.3-11.3-11.3v-2c7.3,0,13.2,5.9,13.2,13.2c0,3.9-1.6,7.5-4.3,9.9C-396.8,65.3-399.8,67.1-404.5,67.1z"/>
	<path class="st12" d="M-406,64.3c-0.7,0-1.5,0-2.3-0.1l0.2-2c4,0.4,7.3-0.3,9.3-2.2c1.7-1.5,2.5-3.7,2.5-6.3
		c0-5.4-5.5-8.7-10.6-8.7v-2c6.1,0,12.6,4.1,12.6,10.6c0,3.2-1.1,5.9-3.2,7.8C-399.4,63.4-402.4,64.3-406,64.3z"/>
	<path class="st12" d="M-404.6,54.9c0,0,2.8-0.2,3.9-2.3c1.1-2.1,1.3-1.5,1.3-1.5s2.4,3,0.3,5.8c-2,2.8-2,1.7-2,1.7s0.5-3.2-1.7-2.4
		c-2.2,0.8-3.2,0-3.2-0.5S-404.6,54.9-404.6,54.9z"/>
</g>
<g>
	<g>
		<path class="st12" d="M-335.2,36.4 M-338.5,36.4c-0.7,0,0.1,0-1.4,0c-1.7,0-4.2-0.3-6.3,1l-0.2-9.2c0,0-2.2,1.5-3.8-0.1
			c0,0,0,9.2,0,11.4c0,4.8,8,2.4,8,2.4v39c0,0,3.1,4,5.9,0c0-3.8,0-18.6,0-18.6h0.1h0.6h0.1V81c0,0,2.8,4.3,5.9,0
			c0-2.3,0-35.2,0-35.2l0.6-0.4l8.8,7.1c0,0,1.7,2.2,4.2-1.4c0-2.1-6.6-7.3-6.6-7.3s-6.3-7.9-9.3-7.4c-1.5,0.3,0,0-1.5,0
			c0,0-1,7.3-1.1,7.6c-0.4,1.9-0.4,2.2-1.4,3.7c-0.8-1-1-1.7-1.4-3.7C-337.3,43.8-338.5,36.4-338.5,36.4z"/>
	</g>
	<path class="st12" d="M-296.3,58.3c0,1.1-0.9,1.9-1.9,1.9h-54.5c-1.1,0-1.9-0.9-1.9-1.9l0,0c0-1.1,0.9-1.9,1.9-1.9h54.5
		C-297.1,56.4-296.3,57.3-296.3,58.3L-296.3,58.3z"/>
	<rect x="-347.5" y="60.8" class="st12" width="43.6" height="2.3"/>
	<polygon class="st12" points="-299.1,83 -306.2,61.4 -304,60.7 -296.7,82.9 	"/>
	<polygon class="st12" points="-352.2,83 -345.1,61.4 -347.3,60.7 -354.6,82.9 	"/>
	<path class="st12" d="M-328.4,31.1c0,3-2.5,5.5-5.5,5.5s-5.5-2.5-5.5-5.5c0-0.6,0.1-1.1,0.2-1.6c2.6,0.4,9-2.8,9.9-1.3
		C-328.7,29.1-328.4,30.1-328.4,31.1z"/>
	<path class="st12" d="M-339.2,28.6c0.8-2.1,2.8-3.5,5.1-3.5c1.7,0,3.1,0.7,4.1,1.9C-333,26.9-338.4,29.8-339.2,28.6z"/>
	<circle class="st12" cx="-329.2" cy="26.4" r="2.5"/>
	<path class="st12" d="M-347.4,27.9v-9.1h-1.4c0,0-0.5,8.2-0.5,9C-348.6,29.6-347.4,27.9-347.4,27.9z"/>
	<path class="st12" d="M-316.3,56h-10.6c0,0-4.1-0.5-1.4-3.2c4.2-0.6,8.4-0.3,8.4-0.3s2-4.7,6.6-4.9c4.6-0.3,5.4,3.1,5.4,3.1
		l4.1,2.4c0,0,2.2,2.2-0.4,2.6c-2.7-0.6-4.9-2.3-4.9-2.3l-1-0.1c0,0-2.1,1.8-4.7,2.5C-315.5,55.8-316.3,56-316.3,56z"/>
	<circle class="st12" cx="-306.5" cy="46" r="3.5"/>
</g>
<g>
	<path class="st13" d="M-239.7,78.6c-0.1,0-0.1,0-0.2-0.1c-0.2-0.1-0.2-0.3-0.1-0.5c0,0,0.2-0.3,0-1c-0.1-0.3-0.2-0.5-0.3-0.7
		c-0.2-0.3-0.4-0.6-0.3-1.1c0-0.4,0.1-0.8,0.2-1.2c0.1-0.3,0.2-0.8,0.2-0.9l0-0.1c0-0.3-0.1-0.7-0.3-1.2c-0.3-0.5-0.4-1.3-0.4-1.8
		c0-0.2,0-0.3-0.1-0.4c0,0-0.1-0.2-0.2-0.3c-0.2-0.4-0.7-1-0.3-1.6c0.1-0.2,0-0.5-0.1-0.8c-0.1-0.5-0.3-1.1,0-1.8
		c0.4-1,0.8-2.1,0.9-3.1l0.1-0.2l1-1.6c0.1-0.3,0.5-0.9,0.8-1c0.1,0,0.3,0,0.4,0c0.2,0.1,0.9,0.1,1,0c1-0.6,1.3-0.7,1.5-0.7
		c0.3,0,1,0,1.3,0.4c0.3,0,0.6,0,1,0.3c0.7,0.4,2,0.7,2.2,0.7c1.6,0,1.9,0.1,1.9,0.1c0.1,0,0.7,0.2,1,0.2c0.4-0.2,0.8-0.4,1-0.5
		c0,0,0-0.2,0.1-0.3c0.1-0.3,0.1-0.6,0.4-0.8c0.2-0.1,0.4-0.1,0.6-0.1c0.6,0.1,1.7,0,2,0c0.3,0,1-0.5,1.1-0.7c0-0.1,0.1-0.2,0.1-0.4
		c0.1-0.5,0.2-1.1,0.8-1.4c0.3-0.1,0.6-0.2,0.9-0.2c0.2,0,0.6-0.1,0.7-0.2c0,0-0.2-0.4-0.3-0.6c-0.2-0.4-0.5-0.9-0.5-1.3
		c0-0.2,0-0.4-0.1-0.6c-0.1-0.7-0.2-1.4,0.4-1.6c0.1,0,0.3-0.2,0.4-0.4c0.3-0.3,0.6-0.7,1-0.7c0-0.3,0.2-0.9,0.5-2.1
		c0.4-1.4,0.5-1.8,0.5-2c0.1-0.3,0.1-0.4,0.4-1.2c0.5-1.3,0.7-2.5,0.8-3.1l0-0.2c0-0.1-0.2-0.7-0.3-1c-0.3-0.8-0.5-1.5,0-1.7
		c0.3-0.2,1.5-1.1,1.7-1.6c0.2-0.5,0.1-2.2,0-2.4l0-0.1c-0.3-0.8-0.5-1.5-0.2-1.9c0.2-0.2,0.4-1.6,0.3-1.9c0-0.1,0-0.3,0.1-0.6
		c0-0.3,0.2-0.9,0.1-1.1c-0.4-0.3-0.9-1.4-1.1-1.7c0-0.1-0.3-1.1-1-1.1c-0.8,0-1.1,0.2-1.1,0.2l-0.1,0.1l-0.1,0
		c-0.5,0.1-1.1,0.2-1.3,0.3c-0.3,0.2-2.2,0.9-2.8,0.9c-0.2,0-0.4,0-0.6-0.1c-0.4-0.1-1.1-0.2-1.3,0c-0.6,0.5-1.1,1-1.2,1.5
		c-0.2,0.6-0.7,1.2-1.1,1.4c-0.3,0.1-0.5,0.1-2.2,0.1c-1.6,0-2.4,0.1-3.5,0.6c-0.5,0.3-0.7,0.4-0.9,0.5c-0.2,0.2-0.4,0.3-0.9,0.4
		c-0.8,0.2-1.6-0.2-2.6-0.7c-0.3-0.1-0.6-0.3-0.9-0.4c-0.7-0.3-1.2-0.6-1.6-0.8c-0.2-0.1-0.5-0.3-0.6-0.3l-2.9,0c-0.5,0-1.2,0-2-0.4
		c-0.3-0.2-0.6-0.4-0.9-0.6c-0.4-0.3-0.8-0.7-1.1-0.7c-0.5,0-1.1,0-1.3,0.1c-0.1,0.1-0.4,0.3-0.7,0.4c-0.4,0-0.7-0.1-1.1-0.5
		c-0.4-0.4-0.7-0.9-1-1.2c-0.2-0.3-0.5-0.7-0.6-0.8c-0.1,0-0.3-0.1-0.5-0.1c-0.3-0.1-0.8-0.3-0.9-0.3c-0.4,0-2.7-0.7-3.1-1
		c-0.2-0.2-0.8-0.7-0.8-0.7l-0.1-0.1c0,0,0-0.1-0.1-0.1c0,0,0,0-0.1,0.1c-0.2,0.3-0.5,0.4-0.6,0.5c-0.1,0-0.3,0.1-0.5,0.6
		c-0.2,0.4-0.2,0.7-0.2,0.9c-0.1,0.5-0.2,0.8-1,1.1c-0.4,0.1-0.7,0.2-0.9,0.3c-0.1,0-0.3,0.1-0.4,0.1c0,0,0,0,0,0.2
		c0,0.2,0.2,0.4,0.5,0.6c0.2,0.2,0.6,0.5,0.4,0.9c-0.1,0.2-0.3,0.3-0.4,0.4c0,0-0.1,0-0.2,0.3c-0.1,0.2-0.2,0.4-0.3,0.7
		c-0.2,0.6-0.5,1.3-0.5,1.7c0.1,0.4,0.5,0.8,0.9,1l0.2,0.1c0.5,0.4,0.3,1.7,0.1,2.4l0,0c0,0,0.1,0,0.1,0c0.5,0.2,0.9,0.3,1.2,0.3
		c0.3,0,0.5,0.1,0.7,0.3c0.1,0.2,0.1,0.4,0.1,0.5c0,0.1,0,0.2,0,0.3c0,0.2,0,0.5-0.4,1.5c-0.3,0.7-0.4,1.6-0.5,2.3
		c-0.1,0.7-0.2,1.2-0.3,1.7c-0.2,0.4-0.6,1.7-0.3,2c0.5,0.4,1.1,1.2,1.2,2.2c0,0.4,0,0.7,0,1c0,0.3,0,0.6,0.1,1
		c0.1,0.3,0.1,0.5,0.1,0.6c0,0.1,0,0.1,0.3,0.7c0.3,0.6,0.9,1,1.3,1.3c0.3,0.3,0.5,0.4,0.6,0.7c0.1,0.3-0.1,0.5-0.2,0.6
		c0,0,0.1,0,0.1,0.1c0.6,0.3,1.8,0.4,2.3,0.4c0,0,0.3,0,0.5-0.1c0.3-0.1,1.3-0.3,1.9-0.4l-0.3-0.6c-0.1-0.2,0-0.4,0.1-0.5
		c0.2-0.1,0.4,0,0.5,0.1l0.8,1.4l-0.5,0.1c-0.9,0.2-2.1,0.4-2.2,0.5c-0.4,0.2-0.8,0.2-0.8,0.2c-0.1,0-1.7,0-2.6-0.5
		c-0.2-0.1-0.5-0.3-0.6-0.6c0-0.3,0.1-0.5,0.2-0.6c-0.1-0.1-0.2-0.2-0.3-0.3c-0.4-0.4-1-0.8-1.4-1.5c-0.4-0.7-0.4-0.8-0.4-1.1
		c0-0.1,0-0.2,0-0.4c-0.1-0.5-0.1-0.8-0.1-1.2c0-0.3,0-0.5,0-0.9c-0.1-0.8-0.6-1.4-1-1.8c-0.7-0.6-0.3-1.7,0.1-2.8
		c0.1-0.4,0.2-0.9,0.3-1.5c0.1-0.8,0.2-1.6,0.5-2.5c0.3-1,0.4-1.2,0.4-1.3c0-0.1,0-0.2,0-0.3c0,0-0.1,0-0.1,0
		c-0.3,0-0.8-0.1-1.4-0.3c-0.5-0.2-1-0.4-0.9-0.8c0-0.1,0.1-0.3,0.4-0.4c0.1-0.7,0.2-1.3,0.1-1.5l-0.2-0.1c-0.4-0.3-1-0.8-1.1-1.5
		c-0.1-0.6,0.2-1.4,0.5-2.1c0.1-0.2,0.2-0.5,0.2-0.6c0.1-0.4,0.3-0.6,0.5-0.7c0,0-0.1,0-0.1-0.1c-0.3-0.2-0.7-0.6-0.7-1.2
		c0-0.8,0.5-0.9,0.9-1c0.2,0,0.5-0.1,0.8-0.2c0.5-0.2,0.5-0.2,0.5-0.6c0-0.3,0.1-0.6,0.3-1.1c0.3-0.8,0.6-0.9,0.9-1
		c0.1,0,0.2-0.1,0.3-0.2c0.3-0.4,0.5-0.4,0.7-0.4c0.3,0,0.5,0.3,0.6,0.4c0.1,0.1,0.6,0.5,0.8,0.7c0.2,0.2,2.3,0.8,2.6,0.8
		c0.3,0,0.6,0.1,1.1,0.3c0.2,0.1,0.3,0.1,0.4,0.1c0.3,0.1,0.6,0.4,1,1c0.3,0.4,0.6,0.8,0.9,1.2c0.2,0.2,0.4,0.3,0.5,0.3
		c0.1,0,0.3-0.2,0.3-0.2l0.1-0.1l0.2,0c0,0,0.8-0.1,1.5-0.1c0.6,0,1.1,0.4,1.6,0.8c0.2,0.2,0.5,0.4,0.7,0.6c0.6,0.3,1.1,0.3,1.6,0.3
		l0.2,0h2.7c0.3,0,0.5,0.1,0.9,0.4c0.3,0.2,0.8,0.5,1.5,0.7c0.3,0.1,0.6,0.3,0.9,0.4c0.9,0.4,1.6,0.8,2.2,0.6
		c0.4-0.1,0.4-0.1,0.6-0.3c0.2-0.1,0.4-0.3,1-0.6c1.2-0.6,2.2-0.7,3.8-0.7c1.5,0,1.8,0,2-0.1c0.1,0,0.5-0.4,0.7-1
		c0.3-0.7,0.9-1.3,1.4-1.7c0.5-0.4,1.3-0.3,1.9-0.2c0.2,0,0.4,0.1,0.5,0.1c0.4,0,2.2-0.6,2.4-0.8c0.3-0.2,1.1-0.3,1.5-0.4
		c0.2-0.1,0.6-0.4,1.5-0.4c1.3,0,1.7,1.5,1.7,1.6c0.2,0.5,0.6,1.3,0.8,1.4c0.5,0.3,0.3,1.1,0.2,1.8c0,0.1-0.1,0.3-0.1,0.4
		c0.1,0.3-0.1,2-0.5,2.4c0,0-0.1,0.3,0.3,1.2l0,0.1c0.1,0.3,0.3,2.2,0,2.9c-0.3,0.6-1.4,1.6-1.9,1.9c0,0.2,0.2,0.6,0.3,0.9
		c0.2,0.6,0.3,1,0.3,1.3l0,0.2c-0.1,0.6-0.3,1.9-0.8,3.3c-0.3,0.7-0.3,0.8-0.3,1.1c-0.1,0.3-0.1,0.7-0.6,2.1
		c-0.4,1.4-0.5,1.9-0.5,2.1c0,0.1,0,0.3-0.2,0.4l-0.1,0.1l-0.2,0c0,0,0,0-0.1,0c-0.1,0-0.4,0.3-0.5,0.5c-0.2,0.3-0.4,0.5-0.7,0.6
		c0,0.1,0,0.6,0.1,0.9c0,0.3,0.1,0.5,0.1,0.7c0,0.3,0.2,0.6,0.4,1c0.2,0.4,0.4,0.8,0.4,1.1c-0.1,0.5-0.7,0.6-1.2,0.7
		c-0.3,0-0.5,0.1-0.7,0.2c-0.2,0.1-0.3,0.5-0.3,0.9c0,0.2-0.1,0.4-0.1,0.6c-0.2,0.5-1.2,1-1.6,1.1c-0.3,0.1-1.6,0.2-2.3,0
		c-0.1,0-0.1,0.2-0.2,0.4c0,0.2-0.1,0.5-0.3,0.6c-0.3,0.3-1.1,0.7-1.3,0.7l-0.1,0l-0.1,0c-0.1,0-0.9-0.2-1.2-0.3
		c-0.1,0-0.5-0.1-1.7-0.1c-0.3,0-1.8-0.3-2.6-0.8c-0.3-0.2-0.4-0.2-0.5-0.2c-0.1,0-0.4,0.1-0.6-0.3c-0.1-0.2-0.6-0.2-0.8-0.2
		c0,0-0.3,0.1-1.1,0.6c-0.3,0.2-1.2,0.3-1.6,0.1c-0.1,0.1-0.3,0.4-0.4,0.6l-1,1.5c-0.1,1-0.5,2.1-0.9,3.2c-0.2,0.5-0.1,0.9,0.1,1.4
		c0.1,0.4,0.2,0.9,0,1.3c-0.1,0.3,0,0.6,0.3,0.9c0.1,0.2,0.2,0.3,0.3,0.5c0,0.1,0.1,0.3,0.1,0.5c0.1,0.5,0.2,1.2,0.4,1.6
		c0.3,0.6,0.4,1.1,0.4,1.4l0,0.1c0,0.2,0,0.6-0.2,1.2c-0.1,0.4-0.2,0.7-0.2,1.1c0,0.3,0,0.4,0.2,0.7c0.1,0.2,0.3,0.5,0.4,0.9
		c0.3,1,0,1.5,0,1.5C-239.5,78.6-239.6,78.6-239.7,78.6z"/>
	<g>
		<path class="st13" d="M-256.5,45c0,0,0,0.1,0,0.1C-256.4,45.3-256.5,45.1-256.5,45z"/>
		<path class="st13" d="M-210.5,28.5c0.6-1.1,0.5-0.8,0.5-1.3c0-0.4-1.2-2.4-1.3-3.1c-0.1-0.7-1.2-1.7-1.5-1.8
			c-0.3-0.1-2.7,0.1-2.8-1.3c-0.1-1.3-1.2-0.6-1.9-1.2c-0.7-0.6-1.5-0.3-2.1-0.4c-0.6-0.1-1.5,0.3-2.9,0.3s-0.2,0.8-1,0.9
			c-0.8,0.2-1.4,0.4-1.9,0.8c-0.5,0.3-0.4,0.8-0.7,1.3c-0.3,0.4-1,0.7-2.9,0.9c-1.9,0.3-0.8,1.2-1.1,1.4s-2,0.5-2.8,0.5
			s-1.8-0.1-2.8-0.1s-1.8,0.1-2.2,0.3c-0.3,0.2-2.3,0.2-2.8,0.2c-0.6,0-1.6-0.7-1.9-1c-0.3-0.3-1.5-0.4-2.5-0.8s-1.4,0-1.9,0
			c-0.5,0-1.4-0.7-1.8-1.2c-0.4-0.5-1.5-1.4-2.3-2.1c-0.8-0.7-0.6-0.3-1.3-0.9c-0.7-0.6-1.8-0.6-2.8-1.1s-1.4-0.5-2.2-0.5
			s-0.9,0-2.1,0c-1.2,0-1,0-1.3,0c-0.3,0-0.8,0.7-1.3,0.9s-0.8,1-1,1.3c-0.3,0.3-1.1,1.7-1.5,2.3c-0.4,0.7-0.9,1.7-1.5,2
			c-0.6,0.3-0.3,1.8-0.5,2s0.1,2,0.4,2.7c0.3,0.7-0.1,1.4-0.3,2.2c-0.2,0.7,0.2,1.2,0,1.8c-0.2,0.7,0.9,1.8,0.9,2.8
			c0.1,1.1-0.3,1.8-0.8,2.3s0,1.7,0,1.9s0.6,1.3,1,2c0.4,0.7,0.1,1.7,0,1.9s-0.1,1.3-0.5,2.3s0.4,1.3,0.4,1.3s0.7,1.3,0.8,2.6
			c0.1,1.3,0,2.4,0,2.6s0.4,2.4,0.4,2.4l0.7,0.7c0,0,1,0.7,2.8,1.2c1.8,0.5,0.7,0.9,0.9,1.6s0.9,0.6,1.2,0.3s2.3,0.9,2.8,0.9
			c0.4,0,0.8,0,1.7-0.3s0.4-0.3,1.1-0.7c0.8-0.3,1.4,0.2,1.8,0.1c0.4-0.1,0,0,0.5-0.5s0.6-0.1,1.3-0.5c0.7-0.4,0.7-0.6,1.4-0.7
			s0.6,0,1.3-0.3c0,0,0.3-0.6,0.5-1.2s0.4-0.8,0.8-1.3c0.4-0.6,0.5-0.4,0.8-0.7s0.4-0.6,0.6-1c0.2-0.4,0-0.5-0.1-1.2
			c-0.1-0.7-0.2-1.2-0.3-1.9s-0.3-0.5-0.5-1s-0.9-1.1-1.1-1.8c-0.2-0.7-1.1-0.8-1.1-0.8s-1.5-0.8-1.8-1s-1.3-0.1-2.5-0.1
			s-1.3-0.2-1.6-0.4c-0.3-0.3-0.3-0.5-0.4-1s0.3-0.5,0.3-1.3s0.2-0.7,0.1-1.5c-0.1-0.8-0.1-0.3-0.1-1.3s-0.2-0.8-0.3-2
			s-0.3-1.3-0.7-2.3c-0.3-1,0.8-1.3,0.8-1.3l0.4,0.4l1.8,0.7c0,0,2.2,0.7,2.4,0.8c0.3,0.1,1.3,0.6,1.6,0.7c0.3,0.1,2.2,0.6,2.8,0.6
			c0.7,0,1.4-0.3,1.8-0.3c0.3,0,1.1,0.2,1.3,0.2s0.8,0.2,1.3,0.3s3.8,0.5,4.3,0.5s3.7-0.4,4.7-1s0.8-0.1,2-0.3
			c1.2-0.2,1.1-0.2,2.3-0.5c1.2-0.3,0.8-0.2,1.4-1.1c0.7-0.9,1.2-0.9,1.4-1c0.3-0.1,0.8,0.4,1.1,0.7c0.4,0.3-0.2,1.3-0.1,1.5
			c0.1,0.3,0.1,0.9,0,1.6c-0.2,0.7,0.1,1,0,1.4c-0.1,0.4-0.4,1.6-0.5,1.8s0.1,1.3,0,1.6c-0.2,0.3,0.2,0.9,0,1.3
			c-0.2,0.4-1.3,2.4-1.4,2.7s0,0.9,0,0.9s-0.5,1.8-0.8,2s-0.4,1-0.4,1s0.1,1.7,0,3.2c-0.1,1.5-0.4,0.5-0.4,0.5h-1.2
			c0,0-1,0.1-1.5,0.1s-2-0.1-2.8-0.3c-0.8-0.2-0.9-0.3-1.4-0.7s-0.4-0.4-0.8-1s-0.8,0-0.8,0s-0.9-0.1-1.2,0c-0.3,0.1-1.7,0.1-2.2,0
			c-0.5-0.1-1.7,1.1-1.9,1.1c-0.3,0.1-1.6,1-2.4,1.6s-1.4,0.5-1.4,0.5s-0.4,0.6-0.8,1s-0.8,0.8-0.9,1s-1.3,3.1-1.3,3.3
			c0,0.2-0.1,1.7-0.1,1.7s-0.5,0.8-0.7,1.2c-0.2,0.4,0.3,1.5,0.3,2c-0.1,0.5-0.1,0.7-0.9,1.3c-0.8,0.7-0.1,0.5,0,1.1
			c0.1,0.6,0.9,1.7,1.2,1.8c0.3,0.2,0.4,1.8,0.4,1.8s0,1.3,0,1.8s0.2,0.8,0.7,1.3s0.5,1.3,0.5,1.3v1.4c0,0,1,1.2,0.9,1.4
			c-0.1,0.3,0.8,1.5,0.8,1.8s1.3,1.3,1.3,1.3s1.1,0.6,1.3,0.6s0,0,0.3,0s0.6,0,1.3,0c0.7,0,0.3,0,0.6,0c0.3,0,1.2,0,2.1-0.6
			c0.9-0.6,0.5-0.2,0.8-0.5c0.3-0.3,0.4-0.3,0.8-0.8s0.3-0.3,0.3-0.8s0.1-0.8,0.2-1.3c0.1-0.4,0.8-0.4,1.2-1.1
			c0.4-0.7,0.7-0.5,0.6-1.1c-0.1-0.6-0.2-0.8-0.3-1.9c-0.2-1.2-0.7-1.7-0.7-2.1c0-0.4-0.6-0.1-0.5-1.2c0.1-1.1-0.2-1.3-0.3-1.9
			c-0.2-0.6-0.3-0.5-0.3-0.5s-0.8-0.7-1.1-1s0.3-1,0.5-1.2c0.3-0.2,0.8-0.8,0.7-1.3c-0.1-0.4,0.1-0.7,0.1-0.7s0.9,0.4,1.7,0.6
			s1.6,0.8,1.8,1.1c0.2,0.3,0.8,0.5,1.1,0.5s1,0,1.3,0s0.3-0.3,0.6-0.6s0.8,0.4,0.8,0.4s1.4,1.2,1.5,1.4s0.9,0.3,1.8,0.3
			c0.9,0,0.8-0.3,1.5-0.8c0.7-0.5,0.1-0.5,0.7-1.3s0,0,0.8,0c0.8,0,0.9,0,1.3-0.6c0.3-0.6,0.3-0.3,0.3-0.6c0.1-0.3,0.2-0.5,0.3-0.8
			s0.5,0,1.1-0.1c0.6-0.1,0.4-0.3,0.5-0.8c0.1-0.5,0.3-0.7,0.8-1.5c0.4-0.8,1.3-0.8,1.3-0.8s0.3-0.8,0.5-1.4c0.2-0.7,0-1,0-1
			s0.6-1.1,1.2-3.1s0.7-0.7,0.9-1.2s0.3-0.7,0.3-1.3s-0.1-1.1,0.1-1.4c0.2-0.3,0.4-0.3,0.8-1.1c0.4-0.8,0-0.5-0.2-1.6
			c-0.2-1.1,0-1-0.1-1.4c-0.1-0.4,0.2-1.6,0.6-3s0.2-1.1,0.3-1.7c0.1-0.6,0.2-0.9,0.2-1.5c0-0.6,0.3-2,0.7-3.9
			c0.4-1.9-0.4-3.3,0.1-4.4s0-0.5,0-1.3s-0.4-1.3-0.5-2.7C-211.4,28.7-211.1,29.6-210.5,28.5z M-213.2,34c-0.4,0.6-0.7,0.9-0.8,1.2
			c-0.2,0.3-0.3,0.2-0.3,0.8c0,0.6,0.9,2.3,0.9,2.5s0.1,0.3-0.1,0.6s-0.7,1.8-0.7,1.8l-0.5,1.2c0,0,0.3-0.1,0.3,0.3s0,1.1,0,1.6
			c0,0.4-0.1,0.6-0.3,1c-0.3,0.4-0.5,0.5-0.5,1.3s0.2,0.7,0.2,1.2c0,0.5,0.4,0.4,0,1c-0.4,0.6-0.7,0.9-0.7,1.7s0.1,0.5,0,1.1
			c-0.1,0.6-0.1,1.8-0.5,1.9c-0.4,0.1-0.4,0.1-0.6,0.7s-0.3,1.3-0.2,1.8s0.4,0.3,0,0.8s-0.7,0.9-1.1,1.4c-0.4,0.5-0.5,0.3-0.6,1
			c-0.1,0.8-0.2,1.6-0.4,2.1s-0.2,1.2-0.6,1.7c-0.4,0.5-0.5,0.2-0.9,0.8c-0.4,0.6,0.8,0-0.4,0.6s-1.6-0.3-2.1,0.6
			c-0.5,0.9-1,1.1-1.1,1.4c-0.1,0.3,0.5,0.2-0.1,0.3c-0.6,0.2-1.6-0.2-1.8,0c-0.3,0.2-1.7,0-1.7,0s-0.5,0.3-0.8,0
			c-0.3-0.3-1-0.7-1-0.7s-0.5-0.3-0.9-0.5c-0.4-0.2-1.8-0.4-2.2-0.6c-0.4-0.2-1.8-0.7-1.8-0.7s-0.3-0.5-0.8-0.5
			c-0.6,0.1-1.1,0-1.1,0s0.2-0.4-0.3,0s0,0.3-0.5,0.4c-0.5,0.1-1,0.3-1.1,0.3c0,0.1,0,0.2-0.1,0.5c-0.2,0.7,0.1,0.6-0.2,1.3
			c-0.3,0.7-0.3,0.8-0.3,1.1c0.1,0.3,0.2,0.3,0.3,0.9c0.1,0.6,0.1,1.2,0.1,1.4s0.3,0.7,0.3,0.7l0.6,0.3c0,0,0.2,0.5,0,1.1
			c-0.2,0.6-0.3,0.6-0.3,1c0,0.4,0,0.3,0.2,0.9c0.2,0.6,0.6,0.6,0.9,1.4c0.3,0.8,0.3,0.7,0.6,1.5s0.2,1.2-0.4,1.7
			c-0.6,0.5-1.3,0.6-1.5,1.4c-0.3,0.8-0.2,1.1-0.8,1.3c-0.6,0.2-1-0.2-1.7,0c-0.7,0.2-0.3,0.6-1.2,0c-0.8-0.5-1.3-0.9-1.7-1.1
			c-0.3-0.3-0.8-0.1-0.8-1.1s-0.1-1.4,0-1.8c0.1-0.4,0.1-1.3-0.1-1.7c-0.2-0.3-0.8-0.7-0.8-1c0-0.3-0.3-1.1-0.2-1.7s0.9-0.9,0.2-1.3
			c-0.8-0.4-0.1-1.7-0.6-2.2s-0.2-1.8-0.3-2.1c-0.1-0.3-0.2-1.2,0.1-1.3c0.3-0.1,0.3-0.5,0.4-0.8c0.1-0.3,0.5-0.6,0.6-1.2
			c0.1-0.6-0.3-1.3,0-2s0.3-1.4,0.7-1.6c0.3-0.2,0.8-0.8,0.8-0.8s0.3,0,1.3-0.3s1.8-1.3,1.8-1.3s0.5-0.2,0.6-0.5s-0.6-0.6,0.5-0.8
			s2.4-0.5,2.4-0.5s0.5-0.3,0.8-0.1c0.3,0.3,0.9,0.5,1.3,0.9c0.4,0.4,1.3,0.9,1.3,0.9h1c0,0,0.8-0.2,1,0c0.3,0.2,0.6,0.7,1,0.9
			c0.4,0.2,0.9,0.3,1.2,0.3s1.5-0.3,1.5-0.3s0.9-0.1,1.2-0.3c0.3-0.2,0.8-0.4,0.8-0.4s0.7-0.6,1.2-1s0.4-1.3,0.4-1.6
			c0-0.3-0.1-0.7,0.3-1.6c0.3-0.9,0.7-1.9,0.7-1.9s0.5-0.5,0.6-1c0.1-0.5,0.3-0.3,0.1-0.9c-0.2-0.6-0.2-1.1-0.2-1.3
			s-0.2-0.7,0.1-1.1c0.3-0.4,0.7-0.8,0.8-1.3c0.2-0.5,0-1.3-0.3-1.8c-0.3-0.5-0.3-1.2-0.3-1.2s0.3-0.3,0.3-0.5s0.2-1.4,0.5-1.9
			s0.7-1.3,0.8-1.7s0-0.7-0.2-0.9c-0.2-0.3-0.4-0.4-0.4-1c0-0.6,0-0.9,0.1-1.3c0.1-0.3,0-0.5,0-1.3s-0.1-1.2-0.2-1.4
			c-0.1-0.3-0.2-0.8-0.4-0.9s0.3,0.1-0.3-0.1c-0.6-0.2,0.1-0.4-1.3-0.1c-1.4,0.3-1.6,0-2.4,0.5c-0.8,0.5-1.2,0.3-2,1.1
			c-0.8,0.8,0.8,0.6-0.8,0.8c-1.6,0.3-2.2,0.3-2.2,0.3s-0.5-0.1-1.7-0.1s-2.2,0.1-2.6,0.4c-0.4,0.3-0.5,0.5-0.8,0.5
			c-0.3,0-1.3,0-2.6,0s0.4-0.1-1.9,0c-2.3,0.1-3.2,0.2-3.5,0.1c-0.3-0.1-1.2-0.6-1.5-0.6c-0.3,0-1.6-0.7-1.6-0.7s0.5-0.1-0.4-0.1
			c-0.9,0-1.6-0.2-1.9-0.3c-0.3-0.1-1.7-0.7-1.7-0.7l-0.4-0.3c0,0,0.2-0.1-0.6-0.3s-1.2-0.5-1.4-0.7c-0.3-0.2-0.5-0.3-0.8-0.6
			s-1.8-0.9-1.8-0.9l-0.6-0.2c0,0-0.5-0.2-0.8,0.3s0,0-0.3,0.5s-0.7,0.2-0.2,1c0.5,0.8,1,1.8,1,1.8c-0.6,0.8-0.2,0.3-0.6,0.8
			c-0.4,0.5-0.5,0.8-0.4,1.2c0.1,0.3,0.3,1,0.3,1s0.3,0.1,0.2,0.7c-0.2,0.6,1.3,2.4,1.3,2.4c-0.5,0.9-0.5,0.8-0.7,1.5
			c-0.2,0.7-0.7,0.3-0.4,1.2c0.3,0.9,0.8,1,0.6,1.5c-0.1,0.4-0.3,0.8-0.3,1.1c0,0.1,0,0.2,0.1,0.4c0.3,1.1,0.3,1.7,0.3,2
			c0,0.3,0.1,0.3,0.1,0.7s-0.1,0.7,0.4,0.8s1.3,0,1.3,0s0.6-0.1,1,0c0.4,0.1,1.3-0.3,1.3-0.3s0.7,0,1,0c0.3,0,1.8,1,2.1,1.1
			c0.3,0.1,0.9,0.3,0.9,0.3s0.3,0.3,0.5,0.5c0.2,0.3,0.3,0.5,0.1,0.8c-0.3,0.3-0.3,0.6-0.3,0.6l0.7,0.7c0,0,0.2,0.3,0.1,0.6
			c-0.1,0.3-0.1,0.3-0.1,0.3l-1.3,1l-1.5,0.8h-0.3c0,0-0.2-0.1-0.9,0.5c-0.8,0.6-0.7,0.8-1.6,1.2c-0.9,0.4-2.7,0.7-3,0.8
			s-1.3-0.2-1.6,0s-0.3,0.8-0.8,0c-0.4-0.8-0.9-1.5-0.9-1.5s0.3-0.9-0.3-1c-0.7-0.2-1.8-0.8-1.8-0.8s-1-0.4-1.1-0.9
			s-0.8-0.3-0.6-1.2s0.5-1,0-2.3c-0.5-1.3-0.9-2.2-0.9-2.6s0.3-0.8,0-1.1s-0.8-1-0.5-1.5s0.6-0.4,0.8-0.9c0.2-0.6,0.4-1.2,0.2-2
			c-0.3-0.8-0.4-1.7-0.5-1.9c-0.1-0.3-0.9-0.4-0.5-1.2c0.4-0.8,0.3-1.3,0.5-1.9c0.3-0.7-0.5-1.3-0.6-1.9c-0.1-0.6-0.4-0.6-0.4-1.1
			s-0.3-1.1,0-1.8c0.3-0.7,0.3-0.7,0.3-1.3s-0.4-0.4-0.4-1.7s-0.4-0.6,0-1.3c0.4-0.7,0.6-0.8,0.8-1c0.3-0.2,0.1-0.8,0.3-1.1
			s0.3-1.4,0.3-1.7c0.1-0.3,0.2-0.7,0.6-1c0.3-0.3,0.8-0.8,1.1-1c0.3-0.2,0.5-0.7,0.9-0.8c0.4-0.2,1.3-0.3,1.8-0.3s1.4,0.3,1.9,0.8
			s0.7,0.3,1.2,0.8s1.6,0.8,1.6,0.8s1-0.3,1.3,0c0.3,0.3-0.2,0.3,0.8,0.7c0.9,0.4,0.9,0.4,1.7,1c0.8,0.6,3.3,1.5,3.3,1.5
			s0.8,0.2,1,0.3c0.3,0.1,0.8-0.1,1.3,0.4c0.4,0.5,0.2,0.5,1.3,0.9c1.1,0.4,2.3,0.3,2.7,0.2c0.4-0.2,2.1-0.2,2.7-0.2
			c0.6,0,1.1,0,1.8-0.3c0.7-0.3-0.4-0.3,1.3-0.3c1.7,0.1,2.5,0.2,3.3,0.1s2.3,0,2.7-0.3c0.4-0.3,0.2-1.3,0.9-1.4s2-0.3,2.3-0.3
			s1.1-0.3,1.3-1c0.2-0.7-0.5-1,0.4-1.3c0.9-0.3,2.3-0.7,2.8-0.8c0.6-0.2,0.8-0.3,1.3-0.4c0.5-0.2,2-0.8,2.5-0.4s1.2,1.4,1.3,1.7
			s0.8,0.7,0.8,0.7s0.2,0.3,0.4,0.4s1.3,0.8,1.3,0.8s0.6,0.3,0.8,0.7c0.2,0.4-0.2,0.3,0,1.1c0.2,0.8,0.1,0.8,0,1.3
			c0,0.5-0.2,0.5-0.5,1.3s-0.4,0-0.3,0.8c0.2,0.8,0.5,1.4,0.8,1.7c0.3,0.3,0.1-0.3,0.3,0.3C-213,33.2-212.8,33.4-213.2,34z"/>
	</g>
</g>
<g>
	<path class="st13" d="M-171.1,80.7c-0.4,0-0.8,0-1.2-0.1c-4.7-0.1-6.1-7.3-6.4-9.2c-1.1-4.1-1.5-12.4,5.3-15.4
		c0.6-0.3,2.3-1.2,4.9-1.2c1,0,1.9,0.1,2.9,0.3c1.8,0.4,2.8,0.6,3.7,0.6c1.1,0,2.1-0.3,4-1.1c2.5-1.1,5.5-4.8,6.6-6.4
		c0.3-0.8,1.9-5-0.4-8.5c-3.7-5.5-6.7-11.2-3.9-15.9l0.2-0.3c1.7-1.9,3.3-2.3,4.4-2.3c2,0,3.6,1.3,4.4,2.4c1.1,1.4,1.1,3.2,1.1,4.6
		c0,0.5,0,1.3,0.1,1.6c0.2,0.2,0.4,0.3,0.6,0.5c0.1,0.1,0.1,0.1,0.2,0.2c0.2-0.1,0.6-0.3,1.4-0.7c0.7-0.4,1.3-0.8,1.8-1.2
		c1.8-1.3,3.4-2.6,7.8-2.6l0.4,0c6.2,0.1,10.5,5.3,12.4,10.2c1.8,4.3,1.4,9.6-1.5,20.9c-2.9,11.3-15.2,18.4-15.8,18.7l-0.2,0.1
		c-0.2,0.1-4.9,2.2-10.6,2.2c-3.5,0-6.7-0.8-9.4-2.4c-4-2.2-7.2-7.3-7.9-8.5c-0.8-0.8-1.8-1.5-2.3-1.6c0,0,0,0.1-0.1,0.1
		c-1.1,2.1-0.4,3.3-0.4,3.4l0.2,0.2l0.1,0.2l1.1,2.9c0.3,0.8,1.3,4.5-0.3,6.8C-168.5,80.1-169.6,80.7-171.1,80.7z M-171.8,76.3
		l0.3,0.1c0.2,0.1,0.4,0.1,0.5,0.1c0.1-0.5,0-1.8-0.3-2.8l-1-2.6c-0.5-0.9-1.7-3.6,0.3-7.4c0.8-1.6,2.1-2.4,3.7-2.4
		c2.7,0,5.2,2.6,5.7,3.1l0.2,0.2l0.1,0.2c0,0.1,3,5.3,6.5,7.2c2.1,1.3,4.5,1.9,7.3,1.9c4.4,0,8.2-1.6,8.7-1.8
		c1-0.6,11.4-6.9,13.7-16c2.6-10.2,3-14.9,1.7-18.3c-0.5-1.2-3.3-7.4-8.6-7.5l-0.3,0c-3,0-3.8,0.6-5.3,1.7c-0.6,0.4-1.3,0.9-2.2,1.5
		c-1.7,1-2.8,1.4-3.8,1.4c-1.4,0-2.2-0.7-2.9-1.3c-0.1-0.1-0.3-0.3-0.5-0.4c-1.6-1.2-1.6-3.2-1.6-4.8c0-0.7,0-1.9-0.3-2.1L-150,26
		c-0.1-0.2-0.5-0.6-0.9-0.6c-0.3,0-0.7,0.3-1.1,0.7c-1.4,2.7,1.2,7.2,3.9,11.2c4,6,0.8,12.6,0.6,12.9l-0.2,0.3
		c-0.4,0.6-4.3,6.1-8.5,8c-2.1,0.9-3.7,1.5-5.7,1.5c-1.4,0-2.9-0.3-4.6-0.7c-0.7-0.2-1.4-0.2-2-0.2c-1.8,0-2.7,0.6-2.8,0.6l-0.3,0.2
		c-5.2,2.2-3,10.5-3,10.5l0.1,0.3c0.4,3,1.7,5.7,2.3,5.7L-171.8,76.3z"/>
	<path class="st13" d="M-146.8,57.1h15.3c0,0-5.8,12.5-16.2,12.5c-10.3,0-10-5.9-10-5.9S-148.8,61.4-146.8,57.1z"/>
</g>
<g>
	<polygon class="st20" points="-26.1,56.9 -48.3,56.9 -48.3,53.2 -29.8,53.2 -29.8,41.5 -78.2,41.5 -78.2,53.2 -61.2,53.2 
		-61.2,56.9 -81.9,56.9 -81.9,37.8 -26.1,37.8 	"/>
	<polygon class="st20" points="-29.1,79.4 -80.3,79.4 -80.3,54.8 -59.7,54.8 -59.7,58.5 -76.6,58.5 -76.6,75.7 -32.8,75.7 
		-32.8,58.5 -48.1,58.5 -48.1,54.8 -29.1,54.8 	"/>
	<path class="st20" d="M-46.9,80.5h-15.3V38.8h15.3V80.5z M-58.5,76.8h7.9V42.5h-7.9V76.8z"/>
	<path class="st20" d="M-60.8,39.7l-2.8-0.1c0.2-3.3,2.1-9.6,8.2-9.6c6,0,8.4,5.7,8.9,8.7l-2.8,0.4c0-0.3-1-6.3-6.1-6.3
		C-60.4,32.8-60.8,39.4-60.8,39.7z"/>
	<path class="st20" d="M-39.9,41.4l-0.9-3.6c1.8-0.5,3.5-6.4,2.7-10.8c-0.2-1-0.6-2-1.1-2c-3.2,0.4-8.6,5.9-11.2,9.2l-2.9-2.3
		c0.8-1,7.9-9.8,13.6-10.6c1-0.1,4.2-0.1,5.2,5C-33.5,31.6-35.3,40.2-39.9,41.4z"/>
	<path class="st20" d="M-70.2,41.4c-4.6-1.2-6.4-9.8-5.4-15.1c1-5.1,4.2-5.1,5.2-5c5.8,0.8,12.9,9.6,13.6,10.6l-2.9,2.3
		c-2.6-3.3-8-8.8-11.2-9.2c-0.4,0-0.9,1-1.1,2c-0.8,4.4,0.9,10.4,2.7,10.8L-70.2,41.4z"/>
</g>
<g>
	<path class="st12" d="M50.3-113.5L83.6-94l-0.2,38.6L49.8-36.3L16.5-55.8l0.2-38.6L50.3-113.5 M50.3-114.6L15.8-95l-0.2,39.7
		l34.3,20.1l34.5-19.7l0.2-39.7L50.3-114.6L50.3-114.6z"/>
</g>
<path class="st12" d="M49.8-30.8L11.7-53.1L12-97.2L50.3-119l38.1,22.3l-0.3,44.1L49.8-30.8z M13.6-54.1l36.2,21.2l36.5-20.8l0.2-42
	l-36.2-21.2L13.8-96.1L13.6-54.1z"/>
<g>
	<g>
		<path class="st13" d="M70-150.9C70-150.9,70-150.9,70-150.9c0,0.1,0,0.1,0,0.1c-13.3,0-26.6,0-40,0c0,0,0-0.1,0-0.1
			C43.4-150.9,56.7-150.9,70-150.9z"/>
		<path class="st13" d="M77.9-183.1c-8.8-8.8-17.7-17.7-26.5-26.5c-0.3-0.3-0.7-0.6-1.2-0.7c-0.1,0-0.2,0-0.2,0
			c-0.5,0.1-0.8,0.3-1.2,0.7c-8.8,8.8-17.7,17.7-26.5,26.5c-0.3,0.3-0.5,0.6-0.7,0.9c0,0.2,0,0.5,0,0.7c0.1,0.3,0.2,0.5,0.4,0.7
			c1.5,1.5,3,3,4.5,4.5c0.7,0.7,1.2,0.7,2,0c0.2-0.2,0.4-0.5,0.8-0.6c0.1,0.3,0.1,0.6,0.1,0.8c0,7.9,0,15.7,0,23.6
			c0,0.3,0,0.6,0,0.9c0.1,0.5,0.3,0.8,0.8,0.8c13.3,0,26.5,0,39.8,0c0.5,0,0.8-0.3,0.8-0.8c0-0.3,0-0.6,0-0.9c0-7.9,0-15.8,0-23.7
			c0-0.3,0-0.5,0.1-0.8c0.3,0.2,0.5,0.4,0.6,0.6c0.9,0.9,1.3,0.9,2.2,0c1.4-1.4,2.8-2.8,4.2-4.2c0.3-0.3,0.4-0.5,0.5-0.9
			c0-0.2,0-0.5,0-0.7C78.4-182.5,78.1-182.8,77.9-183.1z M68.3-152.7c-6.1,0-12.2,0-18.2,0c-6,0-12.1,0-18.1,0
			c-0.5,0-0.6-0.1-0.6-0.6c0-8.5,0-17,0-25.5c0-0.4,0.1-0.6,0.4-0.9c6-6,12-12,18-18c0.3-0.3,0.4-0.4,0.8,0c6,6,12,12.1,18.1,18.1
			c0.2,0.2,0.3,0.4,0.3,0.8c0,8.6,0,17.2,0,25.7C68.8-152.8,68.7-152.7,68.3-152.7z M76.1-181.6c-1.1,1.1-2.1,2.1-3.2,3.2
			c-0.3,0.3-0.4,0.1-0.6-0.1c-1.5-1.5-3.1-3.1-4.6-4.6c-5.6-5.6-11.1-11.1-16.7-16.7c-0.8-0.8-1.1-0.8-1.9,0
			c-7.1,7.1-14.1,14.1-21.2,21.2c-0.4,0.4-0.6,0.4-0.9,0c-0.9-0.9-1.8-1.9-2.8-2.8c-0.4-0.3-0.4-0.5,0-0.9c2.1-2,4.1-4.1,6.2-6.2
			c6.4-6.4,12.8-12.8,19.2-19.2c0.3-0.3,0.5-0.4,0.8,0c8.5,8.5,16.9,17,25.4,25.4c0.1,0.1,0.3,0.2,0.5,0.3
			C76.2-181.7,76.1-181.6,76.1-181.6z"/>
	</g>
	<g>
		<rect x="46.3" y="-182.7" class="st13" width="7.4" height="23.7"/>
		<rect x="38.2" y="-174.6" class="st13" width="23.7" height="7.4"/>
	</g>
</g>
<g>
	<path class="st12" d="M23.7,187.6c-2.1-1.6-2.3-3.3-0.7-5.1c2.4-2.9,4.8-5.7,7.2-8.6c0.3-0.4,0.6-0.9,0.8-1.4
		c3.1-8.9,6.2-17.8,9.3-26.7c0.2-0.7,0.5-1.3,0.9-1.9c1.4-1.8,3.5-2,5.2-0.5c1.1,1,2.1,2.1,2.9,3.3c2.8,4.3,5.5,8.6,8.2,12.9
		c0.3,0.5,0.6,0.7,1.2,0.7c1.1-0.1,2.2,0,3.4,0c-0.4-1.4-0.6-2.8-1.1-4.1c-0.5-1.4-0.2-2.4,0.6-3.6c2.2-3.1,4.2-6.3,6.3-9.5
		c0.4-0.6,0.9-1,1.5-0.8c0.5,0.1,1,0.5,1.1,0.9c0.1,0.4,0,1.1-0.3,1.5c-2,3.1-4,6.2-6.1,9.2c-0.3,0.5-0.4,0.9-0.3,1.6
		c2.8,10.4,5.5,20.8,8.3,31.2c0.1,0.5,0.3,0.7,0.9,0.7c1.7,0.1,2.8,1.4,2.7,3c-0.1,1.6-1.3,2.7-3,2.7c-18.1,0-36.2,0-54.3,0
		c-1.8,0-3-1.2-3-2.9c0-1.6,1.3-2.9,3-2.9C20.2,187.6,21.8,187.6,23.7,187.6z M69.5,187.5c-2.1-7.9-4.2-15.7-6.2-23.6
		c-0.4,0-0.7,0-1,0c-4.3,0-8.5,0-12.8,0c-1,0-1.7-0.4-2-1.2c-0.4-1.2,0.4-2.3,1.7-2.4c0.9,0,1.8,0,2.9,0c-1.6-2.4-3.1-4.6-4.6-6.8
		c-0.1,0.2-0.2,0.3-0.2,0.3c-1.1,3.2-2.1,6.3-3.1,9.5c-0.1,0.3,0,0.7,0.1,1c1.2,2.3,2.4,4.6,3.5,7c0.3,0.6,0.4,1.3,0.4,1.9
		c0,3.6,0,7.2,0,10.8c0,1.2,0.1,2.4-0.9,3.4C54.9,187.5,62.1,187.5,69.5,187.5z M26.5,187.5c5.5,0,11.1,0,16.8,0
		c-0.9-1-0.9-2.1-0.9-3.3c0-2-0.1-4.1,0-6.1c0.3-3-0.4-5.7-2-8.3c-0.5-0.8-0.8-1.6-1.3-2.5c-0.1,0.4-0.2,0.6-0.3,0.8
		c-0.8,2.3-1.5,4.7-2.4,7c-0.2,0.6-0.6,1.2-1,1.7c-1.9,2.3-3.8,4.5-5.6,6.7C28.7,185,27.6,186.2,26.5,187.5z"/>
	<path class="st12" d="M44.7,138.1c0-2.7,2.1-4.8,4.8-4.8c2.7,0,4.8,2.2,4.8,4.9c0,2.6-2.3,4.8-4.8,4.7
		C46.8,142.8,44.7,140.7,44.7,138.1z"/>
</g>
<g>
	<path class="st12" d="M145.6,171.9c0.4-0.2,0.8-0.3,1.2-0.5c0.4-0.2,0.6-0.1,0.8,0.3c0.6,1.1,0.9,2.3,1,3.6c0,0.4-0.1,0.6-0.5,0.6
		c-0.4,0-0.8,0.1-1.4,0.2c0.1,0.6,0.2,1.2,0.3,1.7c0,0.1,0.4,0.2,0.7,0.3c2.2,0.3,4.3,0.6,6.5,0.8c0.4,0.1,0.8,0.1,1.1,0.3
		c0.2,0.1,0.4,0.4,0.6,0.6c0,0.1-0.1,0.1-0.1,0.2c-0.4,0-0.8,0-1.2,0.1c-0.4,0.1-0.9,0.3-1.3,0.4c-0.4,0.2-0.8,0.3-1.2-0.1
		c-0.2-0.2-0.4-0.3-0.7-0.3c-11.9-0.4-23.8-1.1-35.8-0.8c-5.2,0.1-10.3,0.4-15.5,0.6c-0.4,0-0.7,0.3-1,0.4c-0.3,0.1-0.8,0.2-0.9,0.1
		c-0.4-0.4-0.9-0.3-1.4-0.4c-0.3,0-0.8-0.1-0.8-0.3c-0.2-0.5,0.4-0.5,0.7-0.6c2.2-0.3,4.4-0.6,6.7-0.8c1.6-0.2,3.3-0.2,4.9-0.3
		c0.2,0,0.4-0.1,0.6-0.3c1.8-1.7,3.4-3.5,5.3-5.1c3.1-2.6,6.5-4.8,10-6.7c3.2-1.7,6.5-2.8,10.1-2.8c2.3,0,4.7,0.1,7,0.1
		c1.3,0,1.8,1,2.1,1.9c0.7,1.8,1.4,3.6,2,5.4C145.4,170.9,145.5,171.4,145.6,171.9z M103.9,178.8
		C103.9,178.8,103.9,178.8,103.9,178.8c1.5-0.1,3-0.1,4.5-0.1c0-0.1,0-0.2,0-0.2C106.9,178.6,105.4,178.7,103.9,178.8z M148.9,179.1
		c-0.5-0.5-1.7-0.5-1.9,0C147.6,179.1,148.2,179.1,148.9,179.1z"/>
	<path class="st12" d="M136.9,161c-4.4,0-8.7,0.7-12.7,2.5c-1.6,0.7-3.1,1.8-4.6,2.7c-4.5,2.4-8.3,5.8-12.5,8.6
		c-0.7,0.4-1.3,0.8-2,1.2c-0.3,0.2-0.7,0.3-0.9-0.1c-0.1-0.2,0.1-0.6,0.3-0.7c2.8-2.1,5.6-4.3,8.3-6.4c1.3-1,2.8-1.9,4-3
		c2.3-2.1,4.8-4,7.2-6c1-0.9,2.1-1.7,3.2-2.6c0.9-0.7,1.8-1.3,2.8-2c0.1-0.1,0.3-0.1,0.5-0.1c3.1,0.5,6.2,0.9,9.2,1.5
		c1.7,0.3,3.4,0.8,5,1.4c0.9,0.4,1.8,1.1,2.5,1.8c1.9,1.8,3.8,3.7,5.7,5.6c0.4,0.5,0.8,1.1,1,1.6c0.4,0.8,0.2,1.2-0.5,1.8
		c-0.9,0.7-1.9,0.8-2.9,0.5c-1.6-0.5-2.9-1.6-4-2.9c-0.9-1.1-1.8-2.1-3.1-2.8c-0.4-0.2-0.6-0.9-0.9-1.4c-0.2-0.3-0.5-0.6-0.9-0.6
		C140.3,161.3,138.6,161.1,136.9,161z"/>
</g>
<g>
	<path class="st12" d="M33.5,52.2c0.1-1.2,0.2-2.5,0.3-3.7c0.3-3.4,0.8-6.7,2.4-9.8c1.1-2.1,2.6-3.8,5-4.3c1.2-0.2,2.4-0.1,3.6-0.1
		c2.4,0,4.8,0.1,7.3,0c3.5-0.2,5.7,1.6,7.2,4.4c0.3,0.5,0.4,0.9,1.2,0.7c0.6-0.1,1.3,0.4,1.5,1.2c0.2,0.7,0.3,1.5,0.6,2.2
		c0.1,0.3,0.4,0.7,0.7,0.7c2.5,0.6,2.5,1.8,2.8,3.6c0.1,0.4,0.1,0.8,0.1,1.3c0.8,0,1.5,0,2.2,0c0.5,0,0.7-0.4,0.7-0.8
		c0-0.6,0-1.3,0-2c0.5,0.2,0.7,0.5,0.7,0.9c0,1.8-0.1,2.7-2.5,2.5c-0.2,0-0.4,0-0.6,0c0,0.1-0.1,0.2-0.1,0.2
		c0.3,0.2,0.5,0.4,0.8,0.4c0.9,0.1,1.8,0,2.7,0c0.5,0,0.9-0.3,0.8-0.8c0-0.7-0.1-1.3-0.2-2c0-0.2,0-0.3,0-0.6c0.4,0,0.7,0,1,0
		c0,0,0.1,0.1,0.1,0.1c-0.1,1-0.1,1.9-0.3,2.9c-0.1,0.7-0.6,1-1.3,1c-1,0-2.1,0-3.1,0c-0.3,0-0.7-0.3-0.9-0.5
		c-0.3-0.8-0.6-1.6-0.8-2.4c-0.2-0.6-0.1-1.2-0.3-1.8c-0.3-1-0.8-1.3-1.9-1.1c0.1,0.6,0.3,1.1,0.4,1.7c0.5,1.8,0.2,2.3-1.6,2.9
		c0,0.5,0.1,1,0.1,1.5c0,3,0,6-0.1,8.9c0,1.2-1.2,2.1-2.3,2c-1.3-0.1-2.2-1.1-2.2-2.4c0-1.9,0.1-3.9,0.1-5.8c0-0.9,0-1.9-0.1-2.8
		c0-0.3-0.2-0.5-0.4-0.7c-0.2-0.4-0.6-0.7-0.7-1.1c-0.3-0.7-0.4-1.5-0.7-2.2c0,2,0,4,0,6c-0.8,0.2-0.9,0.1-0.9-0.6
		c-0.1-2-0.1-2-2.1-2.1c-2.4,0-2-0.1-2,1.9c0,0.3,0,0.5,0,0.9c-3.5,0-6.9,0-10.3,0c0-3.7,0-7.4,0-11c-0.1,0-0.1,0-0.2-0.1
		c-0.3,0.8-0.6,1.5-0.8,2.3c-1,4.1-1.2,8.3-1,12.5c0,1,0.1,1.9,0.1,2.9c0,1.3-0.9,2.2-2.1,2.4c-1.2,0.1-2.2-0.8-2.4-2
		c-0.1-0.9-0.1-1.8-0.1-2.7c0-0.3-0.1-0.6-0.1-0.9C33.5,54.7,33.5,53.5,33.5,52.2z M57.1,42.3c1.4-0.4,2.8-0.8,4.1-1.1
		c-0.1-0.8-0.4-1.1-1-0.9c-1.4,0.3-2.8,0.7-4.2,1.1c-0.4,0.1-0.7,0.4-0.6,0.9c0.5,2.1,1,4.2,1.6,6.2c0.1,0.5,0.5,0.8,1.1,0.6
		c1.4-0.3,2.7-0.7,4.1-1.1c0.5-0.1,0.7-0.5,0.6-1c-0.1-0.5-0.3-1-0.4-1.5c-0.3-1.2-0.6-2.3-0.9-3.5c-1.4,0.4-2.8,0.7-4.2,1.1
		C57.2,42.8,57.1,42.6,57.1,42.3z"/>
	<path class="st12" d="M42.9,85.1c-1.4-0.5-2.4-1.3-2.7-2.8c-0.1-0.2-0.1-0.5-0.1-0.7c0-9.8,0-17.2,0-27c0-0.2,0-0.3,0-0.5
		c3.5,0,6.9,0,10.4,0c0.1,0.9,0.3,1,1.2,1c0.6,0,1.2,0,1.8,0c0.8,0.1,1.1-0.3,1.1-1.1c0.3,0,0.6,0,1,0c0,0.5,0,1,0,1.5
		c0,9.2,0,16,0,25.2c0,2.5-0.6,3.4-2.9,4.3c-0.4,0-0.9,0-1.3,0c-2.1-0.8-2.9-2.3-2.8-4.5c0.1-8,0-13.5,0-21.5c0-0.3,0-0.5,0-0.8
		c-0.5,0-0.9,0-1.3,0c0,0.5,0,1,0,1.5c0,8,0,13.5,0,21.5c0,0.7-0.2,1.5-0.5,2.2c-0.4,1-1.4,1.3-2.3,1.7
		C43.8,85.1,43.4,85.1,42.9,85.1z"/>
	<path class="st12" d="M47.8,32.7c-3.6,0-6.4-2.8-6.4-6.4c0-3.6,2.8-6.5,6.4-6.4c3.5,0,6.4,2.9,6.4,6.4
		C54.2,29.8,51.4,32.6,47.8,32.7z"/>
	<path class="st12" d="M73.3,43.5c0,1.3-1,2.3-2.2,2.3c-1.3,0-2.3-1-2.3-2.3c0-1.3,1-2.3,2.3-2.2C72.4,41.2,73.3,42.2,73.3,43.5z
		 M72,42.6c-0.1-0.1-0.3-0.4-0.5-0.4c-0.5-0.2-1-0.1-1.4,0.3c-0.4,0.4-0.5,0.9-0.3,1.5c0.2,0.5,0.6,0.8,1.2,0.8c0.7,0,1.2-0.3,1.4-1
		C72.5,43.4,72.6,42.9,72,42.6L72,42.6z"/>
	<path class="st12" d="M65.1,41.5c-1.2,0-2.1-0.7-2.1-1.4c0-0.8,0.9-1.4,1.9-1.4c0.5,0,1,0.3,1.5,0.5c0.2,0.1,0.4,0.2,0.6,0.3
		c0.1,0.1,0.3,0.2,0.3,0.4c0,0.2,0,0.6-0.1,0.7c-0.3,0.3-0.8,0.5-1.2,0.7C65.5,41.4,65.2,41.4,65.1,41.5z"/>
	<path class="st12" d="M54.1,51c-0.7,0-1.5,0-2.2,0c0,0.5,0.2,0.5,0.9,0.5c0.4,0,0.8,0,1.3,0c0,0.4,0,0.7,0,1.1c-1,0-2,0-3,0
		c0-0.6,0-1.2,0-1.8c0-0.2,0.3-0.5,0.4-0.5c0.7,0,1.5,0,2.2,0c0.2,0,0.3,0.2,0.5,0.4C54.1,50.9,54.1,50.9,54.1,51z"/>
	<path class="st12" d="M54,54c0.1,0.5-0.1,0.7-0.5,0.7c-0.6,0-1.3,0-1.9,0c-0.4,0-0.7-0.1-0.5-0.7c0.8,0,1.5,0,2.3,0
		C53.6,54,53.8,54,54,54z"/>
	<path class="st12" d="M69.1,41.5c-0.1-0.9-0.3-1-1.5-1.1c0.1-0.2,0.1-0.5,0.3-0.6c0.5-0.2,1.3,0.3,1.6,0.8
		C69.7,41,69.5,41.3,69.1,41.5z"/>
	<path class="st12" d="M72,42.6c-0.2,0.4-0.3,0.8-0.6,1.2c-0.1,0.1-0.5,0.1-0.6,0c-0.1-0.1-0.1-0.6-0.1-0.6
		C71.1,43,71.6,42.8,72,42.6C72,42.6,72,42.6,72,42.6z"/>
</g>
</svg>
